<svg width="597" height="314" viewBox="0 0 597 314" fill="none" xmlns="http://www.w3.org/2000/svg">
<g clip-path="url(#clip0_2_200)">
<path d="M52.25 223.75C53.5098 223.75 54.718 224.25 55.6088 225.141C56.4996 226.032 57 227.24 57 228.5V285.5C57 286.76 56.4996 287.968 55.6088 288.859C54.718 289.75 53.5098 290.25 52.25 290.25H23.75C22.4902 290.25 21.282 289.75 20.3912 288.859C19.5004 287.968 19 286.76 19 285.5V228.5C19 227.24 19.5004 226.032 20.3912 225.141C21.282 224.25 22.4902 223.75 23.75 223.75H52.25ZM23.75 219C21.2304 219 18.8141 220.001 17.0325 221.782C15.2509 223.564 14.25 225.98 14.25 228.5V285.5C14.25 288.02 15.2509 290.436 17.0325 292.218C18.8141 293.999 21.2304 295 23.75 295H52.25C54.7696 295 57.1859 293.999 58.9675 292.218C60.7491 290.436 61.75 288.02 61.75 285.5V228.5C61.75 225.98 60.7491 223.564 58.9675 221.782C57.1859 220.001 54.7696 219 52.25 219H23.75Z" fill="#2B3237"/>
<path d="M38 285.5C39.2598 285.5 40.468 285 41.3588 284.109C42.2496 283.218 42.75 282.01 42.75 280.75C42.75 279.49 42.2496 278.282 41.3588 277.391C40.468 276.5 39.2598 276 38 276C36.7402 276 35.532 276.5 34.6412 277.391C33.7504 278.282 33.25 279.49 33.25 280.75C33.25 282.01 33.7504 283.218 34.6412 284.109C35.532 285 36.7402 285.5 38 285.5Z" fill="#2B3237"/>
</g>
<g clip-path="url(#clip1_2_200)">
<path d="M573.25 4.75C574.51 4.75 575.718 5.25044 576.609 6.14124C577.5 7.03204 578 8.24022 578 9.5V66.5C578 67.7598 577.5 68.968 576.609 69.8588C575.718 70.7496 574.51 71.25 573.25 71.25H544.75C543.49 71.25 542.282 70.7496 541.391 69.8588C540.5 68.968 540 67.7598 540 66.5V9.5C540 8.24022 540.5 7.03204 541.391 6.14124C542.282 5.25044 543.49 4.75 544.75 4.75H573.25ZM544.75 0C542.23 0 539.814 1.00089 538.032 2.78249C536.251 4.56408 535.25 6.98044 535.25 9.5V66.5C535.25 69.0196 536.251 71.4359 538.032 73.2175C539.814 74.9991 542.23 76 544.75 76H573.25C575.77 76 578.186 74.9991 579.968 73.2175C581.749 71.4359 582.75 69.0196 582.75 66.5V9.5C582.75 6.98044 581.749 4.56408 579.968 2.78249C578.186 1.00089 575.77 0 573.25 0L544.75 0Z" fill="#2B3237"/>
<path d="M559 66.5C560.26 66.5 561.468 65.9996 562.359 65.1088C563.25 64.218 563.75 63.0098 563.75 61.75C563.75 60.4902 563.25 59.282 562.359 58.3912C561.468 57.5004 560.26 57 559 57C557.74 57 556.532 57.5004 555.641 58.3912C554.75 59.282 554.25 60.4902 554.25 61.75C554.25 63.0098 554.75 64.218 555.641 65.1088C556.532 65.9996 557.74 66.5 559 66.5Z" fill="#2B3237"/>
</g>
<g clip-path="url(#clip2_2_200)">
<path d="M73.8672 249.388L76.873 253.954L75.8353 254.637C75.2299 255.036 74.4908 255.178 73.7808 255.032C73.0709 254.885 72.4481 254.463 72.0495 253.857C71.6509 253.252 71.5091 252.513 71.6554 251.803C71.8017 251.093 72.224 250.47 72.8295 250.072L73.8672 249.388ZM85.9155 246.216C87.0086 247.877 85.1642 250.281 83.5039 251.374C82.6738 251.92 81.5703 252.052 80.0518 252.457L78.5333 252.861L75.5275 248.295C76.3576 247.749 77.3296 246.514 79.405 245.148C81.4804 243.781 84.5481 244.139 85.9155 246.216Z" fill="#2B3237"/>
</g>
<g clip-path="url(#clip3_2_200)">
<path d="M111.891 217.751L116.585 220.552L115.948 221.619C115.577 222.242 114.973 222.691 114.271 222.869C113.568 223.046 112.823 222.937 112.201 222.566C111.578 222.194 111.129 221.591 110.951 220.888C110.774 220.185 110.883 219.441 111.254 218.818L111.891 217.751ZM121.355 209.649C123.062 210.667 122.449 213.635 121.43 215.342C120.921 216.195 119.985 216.794 118.794 217.82L117.604 218.845L112.909 216.044C113.419 215.191 113.756 213.656 115.029 211.522C116.302 209.388 119.22 208.375 121.355 209.649Z" fill="#2B3237"/>
</g>
<g clip-path="url(#clip4_2_200)">
<path d="M139.392 167.45L144.472 169.47L144.013 170.624C143.745 171.298 143.221 171.838 142.555 172.125C141.889 172.411 141.137 172.422 140.463 172.154C139.79 171.887 139.25 171.362 138.963 170.696C138.676 170.031 138.666 169.278 138.933 168.605L139.392 167.45ZM147.449 157.947C149.296 158.681 149.162 161.708 148.428 163.555C148.061 164.479 147.232 165.219 146.219 166.421L145.206 167.623L140.127 165.603C140.494 164.679 140.583 163.11 141.501 160.802C142.419 158.493 145.138 157.028 147.449 157.947Z" fill="#2B3237"/>
</g>
<g clip-path="url(#clip5_2_200)">
<path d="M187.863 63.8013L192.584 66.5572L191.957 67.6302C191.592 68.2562 190.993 68.7114 190.292 68.8957C189.59 69.0799 188.845 68.9781 188.219 68.6127C187.593 68.2472 187.138 67.648 186.953 66.9469C186.769 66.2458 186.871 65.5003 187.236 64.8742L187.863 63.8013ZM197.249 55.6084C198.966 56.6105 198.381 59.5836 197.379 61.3004C196.878 62.1587 195.947 62.7665 194.767 63.8035L193.586 64.8405L188.865 62.0846C189.366 61.2262 189.688 59.6882 190.941 57.5423C192.194 55.3964 195.101 54.3547 197.249 55.6084Z" fill="#2B3237"/>
</g>
<g clip-path="url(#clip6_2_200)">
<path d="M223.484 17.5341L226.46 22.1196L225.418 22.7959C224.809 23.1906 224.07 23.3274 223.36 23.1765C222.651 23.0255 222.031 22.5991 221.637 21.991C221.242 21.383 221.105 20.643 221.256 19.934C221.407 19.225 221.834 18.605 222.442 18.2104L223.484 17.5341ZM235.553 14.4414C236.635 16.1089 234.775 18.5008 233.107 19.5829C232.274 20.124 231.169 20.2482 229.648 20.6428L228.127 21.0375L225.151 16.452C225.985 15.9109 226.965 14.6825 229.05 13.3299C231.134 11.9773 234.199 12.3554 235.553 14.4414Z" fill="#2B3237"/>
</g>
<g clip-path="url(#clip7_2_200)">
<path d="M279.603 12.6218L277.229 17.5459L276.109 17.0064C275.457 16.6916 274.955 16.1302 274.716 15.4459C274.477 14.7616 274.52 14.0103 274.834 13.3573C275.149 12.7044 275.711 12.2032 276.395 11.9641C277.079 11.725 277.831 11.7675 278.484 12.0823L279.603 12.6218ZM288.512 21.3309C287.649 23.1214 284.639 22.7736 282.848 21.9103C281.953 21.4787 281.273 20.5994 280.146 19.5043L279.019 18.4092L281.393 13.4851C282.288 13.9168 283.847 14.1166 286.085 15.1957C288.324 16.2748 289.592 19.0909 288.512 21.3309Z" fill="#2B3237"/>
</g>
<g clip-path="url(#clip8_2_200)">
<path d="M319.936 52.7539L315.61 56.0954L314.851 55.1121C314.408 54.5384 314.21 53.8122 314.303 53.0932C314.395 52.3742 314.769 51.7213 315.343 51.2782C315.917 50.8351 316.643 50.6381 317.362 50.7304C318.081 50.8228 318.734 51.1969 319.177 51.7706L319.936 52.7539ZM324.008 64.5289C322.434 65.744 319.898 64.0861 318.683 62.5129C318.075 61.7263 317.861 60.6359 317.343 59.1523L316.825 57.6686L321.151 54.3271C321.759 55.1137 323.064 55.9898 324.582 57.9564C326.101 59.9229 325.976 63.0088 324.008 64.5289Z" fill="#2B3237"/>
</g>
<g clip-path="url(#clip9_2_200)">
<path d="M98.8411 241.779L95.0971 238.144L94.2318 239.036C93.727 239.556 93.44 240.246 93.4341 240.954C93.4282 241.663 93.7038 242.332 94.2003 242.814C94.6967 243.296 95.3734 243.551 96.0815 243.525C96.7896 243.498 97.471 243.19 97.9758 242.67L98.8411 241.779ZM104.342 230.665C102.98 229.343 100.306 230.736 98.9215 232.162C98.2293 232.875 97.8774 233.918 97.1795 235.318L96.4815 236.718L100.225 240.353C100.918 239.64 102.296 238.901 104.027 237.118C105.757 235.336 106.045 232.319 104.342 230.665Z" fill="#2B3237"/>
</g>
<g clip-path="url(#clip10_2_200)">
<path d="M131.736 195.65L127.171 193.122L126.569 194.208C126.218 194.842 126.122 195.584 126.301 196.269C126.481 196.954 126.922 197.528 127.527 197.863C128.133 198.198 128.853 198.268 129.529 198.057C130.205 197.845 130.783 197.37 131.134 196.736L131.736 195.65ZM134.135 183.483C132.475 182.564 130.259 184.608 129.296 186.347C128.814 187.216 128.748 188.315 128.441 189.849L128.134 191.383L132.698 193.911C133.18 193.041 134.317 191.967 135.521 189.794C136.724 187.621 136.212 184.633 134.135 183.483Z" fill="#2B3237"/>
</g>
<g clip-path="url(#clip11_2_200)">
<path d="M155.736 143.65L151.171 141.122L150.569 142.208C150.218 142.842 150.121 143.584 150.301 144.269C150.481 144.954 150.922 145.528 151.527 145.863C152.133 146.198 152.853 146.268 153.529 146.057C154.205 145.845 154.783 145.37 155.134 144.736L155.736 143.65ZM158.135 131.483C156.475 130.564 154.259 132.608 153.296 134.347C152.814 135.216 152.748 136.315 152.441 137.849L152.134 139.383L156.698 141.911C157.18 141.041 158.317 139.967 159.521 137.794C160.724 135.621 160.212 132.633 158.135 131.483Z" fill="#2B3237"/>
</g>
<g clip-path="url(#clip12_2_200)">
<path d="M180.736 91.6495L176.171 89.1216L175.569 90.2083C175.218 90.8424 175.121 91.5836 175.301 92.269C175.481 92.9544 175.922 93.5278 176.527 93.863C177.133 94.1982 177.853 94.2678 178.529 94.0565C179.205 93.8452 179.783 93.3703 180.134 92.7362L180.736 91.6495ZM183.135 79.4832C181.475 78.5639 179.259 80.608 178.296 82.3467C177.814 83.2161 177.748 84.3152 177.441 85.8491L177.134 87.3829L181.698 89.9108C182.18 89.0415 183.317 87.9673 184.521 85.7939C185.724 83.6205 185.212 80.6332 183.135 79.4832Z" fill="#2B3237"/>
</g>
<g clip-path="url(#clip13_2_200)">
<path d="M208.646 42.4122L204.638 39.071L203.843 40.0251C203.379 40.5818 203.145 41.2917 203.193 41.9987C203.24 42.7057 203.566 43.3517 204.097 43.7948C204.629 44.2379 205.323 44.4417 206.027 44.3613C206.731 44.281 207.387 43.9231 207.851 43.3664L208.646 42.4122ZM213.291 30.9141C211.833 29.6991 209.272 31.2899 207.999 32.8165C207.363 33.5798 207.091 34.6469 206.501 36.0956L205.911 37.5443L209.919 40.8856C210.555 40.1223 211.874 39.2811 213.465 37.3728C215.056 35.4645 215.114 32.4341 213.291 30.9141Z" fill="#2B3237"/>
</g>
<g clip-path="url(#clip14_2_200)">
<path d="M298.67 34.8888L302.401 31.2408L301.533 30.3526C301.026 29.8344 300.344 29.5295 299.635 29.5052C298.927 29.4808 298.251 29.7389 297.757 30.2226C297.262 30.7064 296.989 31.3762 296.997 32.0847C297.006 32.7932 297.295 33.4824 297.802 34.0006L298.67 34.8888ZM309.637 40.6771C310.994 39.3505 309.671 36.6409 308.282 35.2197C307.587 34.5092 306.553 34.1303 305.172 33.3961L303.791 32.6619L300.06 36.3099C300.754 37.0205 301.457 38.4179 303.194 40.1943C304.931 41.9707 307.94 42.3366 309.637 40.6771Z" fill="#2B3237"/>
</g>
<g clip-path="url(#clip15_2_200)">
<path d="M328.111 81.8039L333.083 80.2194L332.706 79.0359C332.485 78.3453 332.012 77.7665 331.391 77.4268C330.769 77.0871 330.049 77.0143 329.39 77.2244C328.731 77.4345 328.186 77.9103 327.875 78.5472C327.565 79.1841 327.514 79.9298 327.734 80.6204L328.111 81.8039ZM335.312 91.8999C337.12 91.3237 337.154 88.3088 336.551 86.4151C336.249 85.4683 335.495 84.6655 334.591 83.3893L333.686 82.1131L328.714 83.6976C329.016 84.6444 329.017 86.2087 329.771 88.5758C330.526 90.9428 333.05 92.6207 335.312 91.8999Z" fill="#2B3237"/>
</g>
<g clip-path="url(#clip16_2_200)">
<path d="M250.139 12.018L250.182 6.80008L248.94 6.78968C248.216 6.78361 247.518 7.05267 247.002 7.53765C246.485 8.02264 246.191 8.68383 246.186 9.37577C246.18 10.0677 246.462 10.7337 246.971 11.2273C247.479 11.7209 248.172 12.0016 248.897 12.0076L250.139 12.018ZM261.976 8.32201C261.992 6.42457 259.138 5.45189 257.15 5.43525C256.157 5.42693 255.159 5.89297 253.664 6.35485L252.17 6.81672L252.126 12.0347C253.12 12.043 254.606 12.5298 257.091 12.5506C259.575 12.5714 261.956 10.6957 261.976 8.32201Z" fill="#2B3237"/>
</g>
<g clip-path="url(#clip17_2_200)">
<path d="M162.392 115.45L167.472 117.47L167.013 118.624C166.745 119.298 166.221 119.838 165.555 120.125C164.889 120.411 164.137 120.422 163.463 120.154C162.79 119.887 162.25 119.362 161.963 118.696C161.676 118.031 161.666 117.278 161.933 116.605L162.392 115.45ZM170.449 105.947C172.296 106.681 172.162 109.708 171.428 111.555C171.061 112.479 170.232 113.219 169.219 114.421L168.206 115.623L163.127 113.603C163.494 112.68 163.583 111.111 164.501 108.802C165.419 106.493 168.138 105.028 170.449 105.947Z" fill="#2B3237"/>
</g>
<g clip-path="url(#clip18_2_200)">
<path d="M341.89 106.078L336.743 107.92L336.325 106.75C336.08 106.068 336.117 105.316 336.427 104.661C336.737 104.006 337.295 103.5 337.977 103.256C338.66 103.012 339.411 103.049 340.066 103.358C340.722 103.668 341.227 104.226 341.471 104.908L341.89 106.078ZM342.126 118.535C340.254 119.205 338.354 116.844 337.684 114.973C337.349 114.037 337.482 112.934 337.448 111.363L337.413 109.792L342.56 107.95C342.895 108.885 343.865 110.122 344.702 112.461C345.54 114.8 344.467 117.697 342.126 118.535Z" fill="#2B3237"/>
</g>
<g clip-path="url(#clip19_2_200)">
<path d="M351.487 163.081L346.085 163.923L345.894 162.696C345.782 161.979 345.96 161.248 346.387 160.663C346.815 160.077 347.457 159.686 348.174 159.574C348.89 159.462 349.621 159.64 350.207 160.067C350.792 160.495 351.184 161.137 351.295 161.854L351.487 163.081ZM349.377 175.36C347.413 175.667 345.99 172.991 345.684 171.027C345.531 170.045 345.869 168.987 346.13 167.437L346.392 165.887L351.793 165.045C351.946 166.027 352.667 167.424 353.049 169.879C353.432 172.334 351.834 174.977 349.377 175.36Z" fill="#2B3237"/>
</g>
<g clip-path="url(#clip20_2_200)">
<path d="M356.487 219.081L351.085 219.923L350.894 218.696C350.782 217.979 350.96 217.248 351.387 216.663C351.815 216.077 352.457 215.686 353.174 215.574C353.89 215.462 354.621 215.64 355.207 216.067C355.792 216.495 356.184 217.137 356.295 217.854L356.487 219.081ZM354.377 231.36C352.413 231.667 350.99 228.991 350.684 227.027C350.531 226.045 350.869 224.987 351.13 223.437L351.392 221.887L356.793 221.045C356.946 222.027 357.667 223.424 358.049 225.879C358.432 228.334 356.834 230.977 354.377 231.36Z" fill="#2B3237"/>
</g>
<g clip-path="url(#clip21_2_200)">
<path d="M364.46 274.166L359.276 275.902L358.882 274.724C358.651 274.036 358.704 273.286 359.027 272.637C359.35 271.988 359.918 271.494 360.605 271.264C361.293 271.034 362.044 271.086 362.692 271.41C363.341 271.733 363.835 272.301 364.065 272.988L364.46 274.166ZM364.439 286.625C362.554 287.256 360.702 284.857 360.071 282.972C359.756 282.03 359.911 280.93 359.909 279.358L359.907 277.787L365.091 276.051C365.406 276.994 366.351 278.249 367.14 280.606C367.929 282.962 366.797 285.835 364.439 286.625Z" fill="#2B3237"/>
</g>
<g clip-path="url(#clip22_2_200)">
<path d="M396.05 305.533L398.166 310.573L397.021 311.054C396.352 311.334 395.6 311.338 394.929 311.064C394.258 310.79 393.723 310.26 393.443 309.592C393.162 308.923 393.158 308.171 393.433 307.5C393.707 306.829 394.237 306.294 394.905 306.013L396.05 305.533ZM408.477 304.628C409.246 306.461 406.991 308.486 405.158 309.255C404.242 309.64 403.133 309.566 401.566 309.685L399.999 309.804L397.883 304.763C398.8 304.379 399.982 303.343 402.273 302.382C404.564 301.42 407.514 302.335 408.477 304.628Z" fill="#2B3237"/>
</g>
<g clip-path="url(#clip23_2_200)">
<path d="M442.905 275.939L446.354 280.179L445.39 280.963C444.828 281.421 444.107 281.636 443.386 281.562C442.664 281.488 442.002 281.13 441.545 280.568C441.088 280.005 440.872 279.284 440.947 278.563C441.021 277.842 441.378 277.18 441.941 276.723L442.905 275.939ZM454.573 271.572C455.828 273.114 454.234 275.692 452.692 276.946C451.921 277.573 450.836 277.815 449.366 278.37L447.896 278.925L444.447 274.684C445.218 274.057 446.061 272.731 447.988 271.163C449.916 269.595 453.004 269.643 454.573 271.572Z" fill="#2B3237"/>
</g>
<g clip-path="url(#clip24_2_200)">
<path d="M481.937 237.593L486.378 240.78L485.654 241.79C485.231 242.378 484.592 242.775 483.876 242.893C483.161 243.011 482.428 242.839 481.839 242.417C481.25 241.994 480.854 241.355 480.736 240.639C480.618 239.924 480.79 239.191 481.212 238.602L481.937 237.593ZM492.051 230.318C493.666 231.477 492.804 234.382 491.646 235.997C491.066 236.804 490.083 237.322 488.81 238.244L487.537 239.165L483.096 235.978C483.675 235.171 484.141 233.67 485.589 231.651C487.038 229.632 490.03 228.868 492.051 230.318Z" fill="#2B3237"/>
</g>
<g clip-path="url(#clip25_2_200)">
<path d="M510.433 191.025L515.336 193.443L514.786 194.557C514.466 195.207 513.9 195.703 513.213 195.936C512.527 196.169 511.776 196.12 511.126 195.799C510.476 195.479 509.98 194.913 509.747 194.226C509.514 193.54 509.563 192.789 509.884 192.139L510.433 191.025ZM519.221 182.193C521.004 183.073 520.629 186.079 519.75 187.862C519.311 188.754 518.425 189.425 517.32 190.542L516.215 191.66L511.312 189.242C511.752 188.35 511.966 186.794 513.065 184.565C514.164 182.337 516.991 181.093 519.221 182.193Z" fill="#2B3237"/>
</g>
<g clip-path="url(#clip26_2_200)">
<path d="M533.161 140.66L538.366 142.331L537.987 143.514C537.765 144.204 537.278 144.778 536.634 145.109C535.989 145.441 535.239 145.502 534.549 145.281C533.859 145.059 533.285 144.572 532.953 143.928C532.622 143.283 532.56 142.533 532.782 141.843L533.161 140.66ZM540.556 130.633C542.449 131.24 542.52 134.269 541.912 136.162C541.609 137.108 540.832 137.903 539.903 139.17L538.974 140.438L533.769 138.767C534.073 137.821 534.055 136.249 534.815 133.884C535.574 131.518 538.188 129.872 540.556 130.633Z" fill="#2B3237"/>
</g>
<g clip-path="url(#clip27_2_200)">
<path d="M553.161 91.6599L558.366 93.3307L557.987 94.5136C557.765 95.2039 557.278 95.7778 556.634 96.1092C555.989 96.4405 555.239 96.5022 554.549 96.2807C553.859 96.0591 553.285 95.5724 552.953 94.9277C552.622 94.283 552.56 93.533 552.782 92.8428L553.161 91.6599ZM560.556 81.6325C562.449 82.2401 562.52 85.2693 561.912 87.162C561.609 88.1084 560.832 88.9028 559.903 90.1704L558.974 91.438L553.769 89.7672C554.073 88.8209 554.055 87.2495 554.815 84.8836C555.574 82.5178 558.188 80.8724 560.556 81.6325Z" fill="#2B3237"/>
</g>
<g clip-path="url(#clip28_2_200)">
<path d="M341.707 136.141L346.884 135.486L346.728 134.253C346.637 133.534 346.277 132.879 345.728 132.432C345.178 131.985 344.483 131.783 343.797 131.87C343.11 131.956 342.488 132.325 342.067 132.895C341.646 133.465 341.46 134.189 341.551 134.908L341.707 136.141ZM346.954 147.377C348.836 147.139 349.418 144.18 349.169 142.208C349.044 141.223 348.449 140.296 347.791 138.877L347.134 137.458L341.957 138.112C342.081 139.098 341.798 140.637 342.11 143.101C342.421 145.566 344.599 147.675 346.954 147.377Z" fill="#2B3237"/>
</g>
<g clip-path="url(#clip29_2_200)">
<path d="M348.44 191.777L353.617 191.122L353.461 189.89C353.37 189.171 353.01 188.516 352.46 188.069C351.911 187.622 351.216 187.419 350.53 187.506C349.843 187.593 349.221 187.962 348.8 188.532C348.379 189.101 348.193 189.826 348.284 190.545L348.44 191.777ZM353.686 203.013C355.569 202.775 356.151 199.817 355.902 197.845C355.777 196.859 355.182 195.933 354.524 194.513L353.866 193.094L348.689 193.749C348.814 194.735 348.531 196.273 348.842 198.738C349.154 201.202 351.331 203.311 353.686 203.013Z" fill="#2B3237"/>
</g>
<g clip-path="url(#clip30_2_200)">
<path d="M354.44 248.777L359.617 248.122L359.461 246.89C359.37 246.171 359.01 245.516 358.46 245.069C357.911 244.622 357.216 244.419 356.53 244.506C355.843 244.593 355.221 244.962 354.8 245.532C354.379 246.101 354.193 246.826 354.284 247.545L354.44 248.777ZM359.686 260.013C361.569 259.775 362.151 256.817 361.902 254.845C361.777 253.859 361.182 252.933 360.524 251.513L359.866 250.094L354.689 250.749C354.814 251.735 354.531 253.273 354.842 255.738C355.154 258.202 357.331 260.311 359.686 260.013Z" fill="#2B3237"/>
</g>
<g clip-path="url(#clip31_2_200)">
<path d="M370.634 303.629L374.032 299.669L373.09 298.86C372.54 298.388 371.833 298.144 371.126 298.181C370.418 298.219 369.767 298.535 369.317 299.06C368.866 299.585 368.653 300.276 368.723 300.981C368.793 301.686 369.142 302.348 369.692 302.82L370.634 303.629ZM382.065 308.436C383.301 306.996 381.747 304.413 380.238 303.118C379.484 302.471 378.421 302.184 376.981 301.573L375.541 300.963L372.143 304.923C372.897 305.57 373.719 306.901 375.605 308.518C377.49 310.136 380.519 310.238 382.065 308.436Z" fill="#2B3237"/>
</g>
<g clip-path="url(#clip32_2_200)">
<path d="M423.893 297.956L421.125 293.532L420.072 294.191C419.457 294.576 419.014 295.177 418.839 295.864C418.664 296.551 418.772 297.266 419.139 297.852C419.506 298.439 420.102 298.849 420.796 298.992C421.49 299.135 422.225 298.999 422.84 298.615L423.893 297.956ZM431.887 288.476C430.881 286.868 427.951 287.581 426.267 288.636C425.424 289.163 424.833 290.092 423.821 291.285L422.809 292.478L425.577 296.901C426.42 296.374 427.935 295.986 430.041 294.668C432.147 293.35 433.146 290.488 431.887 288.476Z" fill="#2B3237"/>
</g>
<g clip-path="url(#clip33_2_200)">
<path d="M466.855 262.24L463.242 258.475L462.346 259.335C461.823 259.837 461.511 260.516 461.48 261.224C461.449 261.932 461.701 262.61 462.18 263.109C462.659 263.609 463.326 263.888 464.035 263.886C464.743 263.885 465.435 263.602 465.958 263.1L466.855 262.24ZM472.746 251.328C471.432 249.959 468.71 251.256 467.276 252.632C466.559 253.32 466.17 254.35 465.423 255.724L464.676 257.099L468.289 260.864C469.006 260.176 470.41 259.486 472.203 257.766C473.995 256.046 474.389 253.041 472.746 251.328Z" fill="#2B3237"/>
</g>
<g clip-path="url(#clip34_2_200)">
<path d="M502.714 217.562L498.472 214.523L497.748 215.532C497.326 216.122 497.145 216.847 497.244 217.548C497.343 218.25 497.715 218.87 498.278 219.273C498.84 219.676 499.547 219.829 500.244 219.697C500.94 219.566 501.568 219.161 501.99 218.571L502.714 217.562ZM506.504 205.755C504.962 204.649 502.524 206.423 501.366 208.039C500.788 208.847 500.594 209.931 500.112 211.419L499.629 212.907L503.871 215.946C504.45 215.138 505.704 214.203 507.151 212.183C508.598 210.164 508.434 207.137 506.504 205.755Z" fill="#2B3237"/>
</g>
<g clip-path="url(#clip35_2_200)">
<path d="M527.569 168.487L522.861 166.236L522.325 167.357C522.013 168.011 521.961 168.757 522.182 169.43C522.402 170.104 522.877 170.65 523.501 170.948C524.125 171.246 524.848 171.273 525.511 171.021C526.173 170.77 526.721 170.261 527.034 169.607L527.569 168.487ZM529.236 156.198C527.524 155.38 525.433 157.553 524.576 159.347C524.148 160.243 524.148 161.344 523.933 162.894L523.718 164.443L528.426 166.693C528.855 165.797 529.925 164.656 530.997 162.415C532.068 160.173 531.377 157.222 529.236 156.198Z" fill="#2B3237"/>
</g>
<g clip-path="url(#clip36_2_200)">
<path d="M548.706 116.623L543.998 114.373L543.462 115.494C543.15 116.148 543.098 116.893 543.319 117.567C543.539 118.24 544.014 118.786 544.638 119.085C545.262 119.383 545.985 119.409 546.648 119.158C547.31 118.906 547.858 118.398 548.17 117.744L548.706 116.623ZM550.373 104.335C548.661 103.517 546.57 105.69 545.713 107.483C545.285 108.38 545.284 109.481 545.07 111.03L544.855 112.58L549.563 114.83C549.992 113.933 551.062 112.793 552.134 110.551C553.205 108.31 552.514 105.358 550.373 104.335Z" fill="#2B3237"/>
</g>
<path d="M23 115.574C23 114.22 23.2539 112.993 23.7617 111.893C24.3542 110.708 25.4544 110.115 27.0625 110.115C28.4167 110.115 29.7285 111.512 30.998 114.305C32.3522 117.098 33.7064 120.695 35.0605 125.096C36.4993 129.412 37.9805 134.194 39.5039 139.441C41.0273 144.604 42.6354 149.64 44.3281 154.549C46.0208 159.373 47.7982 163.732 49.6602 167.625C51.5221 171.434 53.5111 174.1 55.627 175.623C57.6582 174.777 59.2663 173.296 60.4512 171.18C61.7207 168.979 62.7363 166.398 63.498 163.436C64.2598 160.389 64.8099 157.13 65.1484 153.66C65.5716 150.105 65.9525 146.593 66.291 143.123C66.7142 139.568 67.1374 136.141 67.5605 132.84C67.9837 129.454 68.5762 126.492 69.3379 123.953C70.1842 121.414 71.2422 119.383 72.5117 117.859C73.7812 116.336 75.3893 115.574 77.3359 115.574C78.5208 115.574 79.5788 115.701 80.5098 115.955C81.4408 116.124 82.2448 116.971 82.9219 118.494C83.2604 119.594 83.8105 121.202 84.5723 123.318C85.334 125.434 86.1803 127.889 87.1113 130.682C88.127 133.475 89.2272 136.479 90.4121 139.695C91.6816 142.827 92.9512 145.916 94.2207 148.963C95.5749 152.01 96.8867 154.93 98.1562 157.723C99.4258 160.431 100.653 162.758 101.838 164.705C102.007 165.044 102.43 165.594 103.107 166.355C103.869 167.033 104.377 167.413 104.631 167.498L110.09 162.039C111.529 160.6 112.629 158.484 113.391 155.691C114.152 152.814 114.702 149.513 115.041 145.789C115.464 142.065 115.718 138.087 115.803 133.855C115.972 129.539 116.099 125.265 116.184 121.033C116.268 116.801 116.438 112.697 116.691 108.719C116.945 104.741 117.368 101.271 117.961 98.3086C118.553 95.2617 119.4 92.8496 120.5 91.0723C121.6 89.2949 123.124 88.4062 125.07 88.4062C125.155 88.4062 125.24 88.4486 125.324 88.5332C125.493 88.5332 125.663 88.5332 125.832 88.5332C126.086 88.6178 126.255 88.6602 126.34 88.6602C126.424 88.6602 126.636 88.8294 126.975 89.168C127.313 89.4219 127.609 89.6758 127.863 89.9297C128.202 90.1836 128.456 90.4375 128.625 90.6914C128.879 90.9453 129.048 91.1569 129.133 91.3262C129.133 91.9186 129.133 92.9766 129.133 94.5C129.217 96.0234 129.26 97.6738 129.26 99.4512C129.26 101.229 129.26 102.921 129.26 104.529C129.344 106.053 129.387 107.111 129.387 107.703C129.387 109.396 129.344 111.723 129.26 114.686C129.26 117.648 129.133 121.033 128.879 124.842C128.71 128.566 128.413 132.586 127.99 136.902C127.652 141.134 127.102 145.366 126.34 149.598C125.578 153.745 124.605 157.765 123.42 161.658C122.32 165.467 120.923 168.852 119.23 171.814C117.622 174.692 115.718 177.02 113.518 178.797C111.402 180.49 108.863 181.336 105.9 181.336C103.023 181.336 100.568 180.405 98.5371 178.543C96.5905 176.596 94.8978 174.227 93.459 171.434C92.0202 168.556 90.793 165.467 89.7773 162.166C88.7617 158.781 87.7038 155.649 86.6035 152.771C85.5879 149.894 84.4453 147.524 83.1758 145.662C81.9909 143.715 80.5098 142.742 78.7324 142.742C78.5632 142.742 78.3092 142.785 77.9707 142.869C77.7168 142.954 77.5052 142.996 77.3359 142.996C77.2513 143.335 76.9974 144.816 76.5742 147.439C76.151 150.063 75.5586 153.195 74.7969 156.834C74.0352 160.389 73.1042 164.24 72.0039 168.387C70.9036 172.534 69.6341 176.342 68.1953 179.812C66.8411 183.283 65.3177 186.202 63.625 188.572C62.0169 190.857 60.2396 192 58.293 192C54.3151 192 50.6758 190.519 47.375 187.557C44.0742 184.51 41.112 180.617 38.4883 175.877C35.9492 171.053 33.7064 165.721 31.7598 159.881C29.8132 154.041 28.1628 148.328 26.8086 142.742C25.5391 137.072 24.5658 131.824 23.8887 127C23.2962 122.091 23 118.283 23 115.574ZM191.594 175.623C188.378 177.824 185.585 179.812 183.215 181.59C180.93 183.283 178.687 184.721 176.486 185.906C174.286 187.091 171.916 187.98 169.377 188.572C166.923 189.165 163.876 189.461 160.236 189.461C152.365 189.461 146.525 187.387 142.717 183.24C138.908 179.008 137.004 172.745 137.004 164.451C137.004 161.235 137.427 157.892 138.273 154.422C139.12 150.952 140.347 147.524 141.955 144.139C143.648 140.669 145.637 137.41 147.922 134.363C150.207 131.232 152.788 128.481 155.666 126.111C158.544 123.742 161.59 121.88 164.807 120.525C168.107 119.087 171.577 118.367 175.217 118.367C181.311 118.96 186.092 120.483 189.562 122.938C193.033 125.307 195.656 128.396 197.434 132.205C199.211 135.929 200.438 140.118 201.115 144.773C201.792 149.344 202.3 154.083 202.639 158.992C203.062 163.901 203.57 168.81 204.162 173.719C204.755 178.628 205.982 183.156 207.844 187.303C206.743 190.096 205.686 192.042 204.67 193.143C203.739 194.327 202.681 194.539 201.496 193.777C200.311 193.016 198.915 191.154 197.307 188.191C195.783 185.229 193.879 181.04 191.594 175.623ZM147.795 164.705C147.795 169.529 148.684 173.084 150.461 175.369C152.323 177.57 155.581 178.67 160.236 178.67C163.706 178.67 167.007 178.077 170.139 176.893C173.355 175.623 176.148 173.93 178.518 171.814C180.887 169.614 182.792 166.99 184.23 163.943C185.669 160.896 186.389 157.511 186.389 153.787C186.389 152.264 186.431 150.148 186.516 147.439C186.6 144.646 186.431 141.896 186.008 139.188C185.585 136.479 184.781 134.152 183.596 132.205C182.411 130.174 180.633 129.158 178.264 129.158C173.863 129.158 169.8 130.301 166.076 132.586C162.352 134.786 159.136 137.622 156.428 141.092C153.719 144.562 151.604 148.413 150.08 152.645C148.557 156.792 147.795 160.812 147.795 164.705ZM215.842 149.217C215.842 147.016 216.392 145.451 217.492 144.52C218.592 143.504 220.37 142.996 222.824 142.996H224.094C224.348 144.35 224.644 145.916 224.982 147.693C225.321 149.471 225.829 151.29 226.506 153.152C227.183 155.014 227.987 156.749 228.918 158.357C229.849 159.881 230.992 161.108 232.346 162.039C232.43 159.077 233.15 156.242 234.504 153.533C235.943 150.74 237.678 148.286 239.709 146.17C241.825 143.969 244.11 142.15 246.564 140.711C249.104 139.188 251.6 138.172 254.055 137.664H256.848C260.91 137.664 264.38 138.595 267.258 140.457C270.135 142.234 272.505 144.604 274.367 147.566C276.314 150.444 277.795 153.745 278.811 157.469C279.826 161.193 280.588 165.001 281.096 168.895C281.688 172.703 282.027 176.427 282.111 180.066C282.281 183.621 282.365 186.668 282.365 189.207H273.098C272.59 184.129 271.955 179.262 271.193 174.607C270.939 172.745 270.601 170.799 270.178 168.768C269.755 166.652 269.289 164.705 268.781 162.928C268.273 161.066 267.723 159.373 267.131 157.85C266.538 156.242 265.861 154.887 265.1 153.787C264.761 153.449 264.296 152.983 263.703 152.391C263.195 151.798 262.645 151.206 262.053 150.613C261.46 150.021 260.91 149.513 260.402 149.09C259.895 148.667 259.598 148.455 259.514 148.455C256.975 147.778 254.774 148.286 252.912 149.979C251.05 151.587 249.4 153.787 247.961 156.58C246.522 159.373 245.337 162.547 244.406 166.102C243.56 169.656 242.84 173.084 242.248 176.385C241.656 179.601 241.232 182.436 240.979 184.891C240.725 187.26 240.555 188.699 240.471 189.207C238.355 190.73 236.366 191.196 234.504 190.604C232.642 189.926 230.865 188.572 229.172 186.541C227.564 184.51 226.083 181.971 224.729 178.924C223.459 175.877 222.274 172.661 221.174 169.275C220.074 165.805 219.058 162.335 218.127 158.865C217.281 155.395 216.519 152.179 215.842 149.217ZM286.555 177.02C286.555 172.111 287.782 167.752 290.236 163.943C292.691 160.135 295.738 156.834 299.377 154.041C303.016 151.163 306.952 148.751 311.184 146.805C315.415 144.773 319.351 143.123 322.99 141.854C326.63 140.499 329.676 139.441 332.131 138.68C334.585 137.833 335.812 137.156 335.812 136.648C335.812 133.686 335.643 130.809 335.305 128.016C335.051 125.138 334.755 122.26 334.416 119.383C334.077 116.505 333.739 113.67 333.4 110.877C333.146 107.999 333.02 105.164 333.02 102.371V94.1191C336.49 92.8496 338.944 92.9766 340.383 94.5C341.906 96.0234 342.16 98.6471 341.145 102.371C341.483 104.233 341.949 107.153 342.541 111.131C343.133 115.109 343.768 119.594 344.445 124.588C345.207 129.581 345.969 134.829 346.73 140.33C347.577 145.831 348.339 151.121 349.016 156.199C349.777 161.193 350.412 165.678 350.92 169.656C351.428 173.549 351.809 176.469 352.062 178.416C352.147 178.839 352.232 179.686 352.316 180.955C352.401 182.14 352.443 183.452 352.443 184.891C352.528 186.245 352.57 187.514 352.57 188.699C352.655 189.884 352.697 190.73 352.697 191.238C349.481 191.238 347.281 191.111 346.096 190.857C344.995 190.604 344.276 190.096 343.938 189.334C343.684 188.572 343.557 187.472 343.557 186.033C343.557 184.594 343.133 182.605 342.287 180.066C339.156 182.521 336.193 184.552 333.4 186.16C330.607 187.768 327.814 189.08 325.021 190.096C322.229 191.027 319.393 191.661 316.516 192C313.723 192.423 310.718 192.635 307.502 192.635C304.794 192.635 302.17 192.423 299.631 192C297.176 191.492 294.976 190.646 293.029 189.461C291.083 188.276 289.517 186.668 288.332 184.637C287.147 182.605 286.555 180.066 286.555 177.02ZM297.6 174.354C297.6 175.708 297.896 176.808 298.488 177.654C299.081 178.501 299.842 179.22 300.773 179.812C301.704 180.405 302.678 180.828 303.693 181.082C304.794 181.251 305.852 181.336 306.867 181.336C309.829 181.336 313.003 180.786 316.389 179.686C319.859 178.501 323.033 176.893 325.91 174.861C328.872 172.745 331.285 170.249 333.146 167.371C335.093 164.493 336.066 161.362 336.066 157.977C336.066 155.353 335.601 153.533 334.67 152.518C333.739 151.502 331.962 150.994 329.338 150.994C326.63 150.994 323.456 151.629 319.816 152.898C316.262 154.168 312.792 155.861 309.406 157.977C306.105 160.092 303.312 162.589 301.027 165.467C298.742 168.26 297.6 171.222 297.6 174.354ZM414.777 175.623C411.561 177.824 408.768 179.812 406.398 181.59C404.113 183.283 401.87 184.721 399.67 185.906C397.469 187.091 395.1 187.98 392.561 188.572C390.106 189.165 387.059 189.461 383.42 189.461C375.549 189.461 369.709 187.387 365.9 183.24C362.092 179.008 360.188 172.745 360.188 164.451C360.188 161.235 360.611 157.892 361.457 154.422C362.303 150.952 363.531 147.524 365.139 144.139C366.831 140.669 368.82 137.41 371.105 134.363C373.391 131.232 375.972 128.481 378.85 126.111C381.727 123.742 384.774 121.88 387.99 120.525C391.291 119.087 394.761 118.367 398.4 118.367C404.494 118.96 409.276 120.483 412.746 122.938C416.216 125.307 418.84 128.396 420.617 132.205C422.395 135.929 423.622 140.118 424.299 144.773C424.976 149.344 425.484 154.083 425.822 158.992C426.245 163.901 426.753 168.81 427.346 173.719C427.938 178.628 429.165 183.156 431.027 187.303C429.927 190.096 428.869 192.042 427.854 193.143C426.923 194.327 425.865 194.539 424.68 193.777C423.495 193.016 422.098 191.154 420.49 188.191C418.967 185.229 417.062 181.04 414.777 175.623ZM370.979 164.705C370.979 169.529 371.867 173.084 373.645 175.369C375.507 177.57 378.765 178.67 383.42 178.67C386.89 178.67 390.191 178.077 393.322 176.893C396.538 175.623 399.331 173.93 401.701 171.814C404.071 169.614 405.975 166.99 407.414 163.943C408.853 160.896 409.572 157.511 409.572 153.787C409.572 152.264 409.615 150.148 409.699 147.439C409.784 144.646 409.615 141.896 409.191 139.188C408.768 136.479 407.964 134.152 406.779 132.205C405.594 130.174 403.817 129.158 401.447 129.158C397.046 129.158 392.984 130.301 389.26 132.586C385.536 134.786 382.32 137.622 379.611 141.092C376.903 144.562 374.787 148.413 373.264 152.645C371.74 156.792 370.979 160.812 370.979 164.705ZM439.025 138.68C439.025 137.918 439.068 137.156 439.152 136.395C439.237 135.548 439.406 134.829 439.66 134.236C439.914 133.559 440.295 133.009 440.803 132.586C441.395 132.163 442.199 131.951 443.215 131.951C444.061 131.951 444.992 132.628 446.008 133.982C447.108 135.252 448.208 136.902 449.309 138.934C450.409 140.88 451.467 143.038 452.482 145.408C453.583 147.778 454.514 149.979 455.275 152.01C456.122 153.956 456.799 155.649 457.307 157.088C457.814 158.527 458.111 159.288 458.195 159.373C459.296 156.411 460.523 153.195 461.877 149.725C463.231 146.255 464.882 143.038 466.828 140.076C468.859 137.029 471.229 134.49 473.938 132.459C476.73 130.428 480.116 129.412 484.094 129.412C486.125 129.412 488.029 129.751 489.807 130.428C491.669 131.02 493.277 131.951 494.631 133.221C496.07 134.406 497.212 135.844 498.059 137.537C498.905 139.23 499.328 141.176 499.328 143.377C499.328 145.239 498.566 146.551 497.043 147.312C495.604 148.074 493.954 148.455 492.092 148.455H490.822L485.363 142.996C485.194 142.996 485.067 142.954 484.982 142.869C484.813 142.869 484.644 142.869 484.475 142.869C484.39 142.785 484.263 142.742 484.094 142.742C481.132 142.742 478.804 143.589 477.111 145.281C475.503 146.889 474.276 148.921 473.43 151.375C472.583 153.745 472.033 156.284 471.779 158.992C471.61 161.616 471.525 164.028 471.525 166.229C471.525 167.921 471.695 169.656 472.033 171.434C472.372 173.126 472.753 174.819 473.176 176.512C473.599 178.12 473.98 179.812 474.318 181.59C474.657 183.283 474.826 185.06 474.826 186.922C474.826 190.477 472.922 192.254 469.113 192.254C466.997 192.254 464.797 191.154 462.512 188.953C460.227 186.668 457.941 183.79 455.656 180.32C453.456 176.85 451.34 173.042 449.309 168.895C447.277 164.663 445.5 160.558 443.977 156.58C442.453 152.602 441.226 149.005 440.295 145.789C439.449 142.573 439.025 140.203 439.025 138.68ZM503.898 156.707C503.898 152.137 504.449 147.566 505.549 142.996C506.649 138.426 508.384 134.321 510.754 130.682C513.208 127.042 516.34 124.08 520.148 121.795C524.042 119.51 528.739 118.367 534.24 118.367C537.372 118.367 540.122 118.96 542.492 120.145C544.862 121.245 546.851 122.726 548.459 124.588C550.067 126.45 551.252 128.65 552.014 131.189C552.86 133.644 553.283 136.225 553.283 138.934C553.283 143.25 552.268 147.439 550.236 151.502C548.29 155.564 545.624 159.161 542.238 162.293C538.938 165.34 535.129 167.667 530.812 169.275C526.496 170.799 522.095 171.137 517.609 170.291C517.694 172.745 518.498 174.734 520.021 176.258C521.63 177.697 523.534 178.797 525.734 179.559C527.935 180.32 530.22 180.828 532.59 181.082C534.96 181.251 537.076 181.336 538.938 181.336C540.884 181.336 542.704 181.167 544.396 180.828C546.089 180.49 547.782 180.109 549.475 179.686C551.167 179.262 552.86 178.882 554.553 178.543C556.33 178.204 558.192 178.035 560.139 178.035C560.9 178.035 561.662 178.077 562.424 178.162C563.186 178.247 563.905 178.458 564.582 178.797C565.259 179.051 565.809 179.516 566.232 180.193C566.656 180.786 566.867 181.548 566.867 182.479C566.867 184.087 566.275 185.441 565.09 186.541C563.905 187.557 562.382 188.445 560.52 189.207C558.742 189.969 556.753 190.561 554.553 190.984C552.352 191.323 550.194 191.619 548.078 191.873C546.047 192.042 544.143 192.127 542.365 192.127C540.673 192.212 539.403 192.254 538.557 192.254C533.14 192.254 528.273 191.408 523.957 189.715C519.641 187.938 516.001 185.525 513.039 182.479C510.077 179.347 507.792 175.623 506.184 171.307C504.66 166.906 503.898 162.039 503.898 156.707ZM517.355 148.455C517.355 151.417 517.736 153.576 518.498 154.93C519.344 156.284 521.333 156.961 524.465 156.961C526.665 156.961 528.824 156.58 530.939 155.818C533.055 154.972 534.96 153.829 536.652 152.391C538.43 150.952 539.826 149.259 540.842 147.312C541.857 145.366 542.365 143.25 542.365 140.965C542.365 139.695 542.238 138.383 541.984 137.029C541.815 135.675 541.392 134.448 540.715 133.348C540.038 132.163 539.149 131.232 538.049 130.555C537.033 129.793 535.679 129.412 533.986 129.412C531.447 129.412 529.12 130.005 527.004 131.189C524.973 132.29 523.238 133.771 521.799 135.633C520.36 137.41 519.26 139.441 518.498 141.727C517.736 143.927 517.355 146.17 517.355 148.455Z" fill="#0E376F"/>
<defs>
<clipPath id="clip0_2_200">
<rect width="76" height="76" fill="white" transform="translate(0 219)"/>
</clipPath>
<clipPath id="clip1_2_200">
<rect width="76" height="76" fill="white" transform="translate(521)"/>
</clipPath>
<clipPath id="clip2_2_200">
<rect width="7.95125" height="15.9025" fill="white" transform="translate(83.2825 242) rotate(56.6417)"/>
</clipPath>
<clipPath id="clip3_2_200">
<rect width="7.95125" height="15.9025" fill="white" transform="translate(117.149 207) rotate(30.8244)"/>
</clipPath>
<clipPath id="clip4_2_200">
<rect width="7.95125" height="15.9025" fill="white" transform="translate(142.875 156) rotate(21.6814)"/>
</clipPath>
<clipPath id="clip5_2_200">
<rect width="7.95125" height="15.9025" fill="white" transform="translate(193.017 53) rotate(30.2748)"/>
</clipPath>
<clipPath id="clip6_2_200">
<rect width="7.95125" height="15.9025" fill="white" transform="translate(232.948 10.2078) rotate(57.0189)"/>
</clipPath>
<clipPath id="clip7_2_200">
<rect width="7.95125" height="15.9025" fill="white" transform="translate(290.778 16.9062) rotate(115.74)"/>
</clipPath>
<clipPath id="clip8_2_200">
<rect width="7.95125" height="15.9025" fill="white" transform="translate(328.013 61.5856) rotate(142.319)"/>
</clipPath>
<clipPath id="clip9_2_200">
<rect width="7.59" height="15.9" fill="white" transform="matrix(-0.717496 -0.696562 -0.696562 0.717496 107.828 233.884)"/>
</clipPath>
<clipPath id="clip10_2_200">
<rect width="7.59" height="15.9" fill="white" transform="matrix(-0.874817 -0.484453 -0.484453 0.874817 138.343 185.677)"/>
</clipPath>
<clipPath id="clip11_2_200">
<rect width="7.59" height="15.9" fill="white" transform="matrix(-0.874817 -0.484453 -0.484453 0.874817 162.343 133.677)"/>
</clipPath>
<clipPath id="clip12_2_200">
<rect width="7.59" height="15.9" fill="white" transform="matrix(-0.874817 -0.484453 -0.484453 0.874817 187.343 81.677)"/>
</clipPath>
<clipPath id="clip13_2_200">
<rect width="7.59" height="15.9" fill="white" transform="matrix(-0.768109 -0.640319 -0.640319 0.768109 217.011 33.86)"/>
</clipPath>
<clipPath id="clip14_2_200">
<rect width="7.59" height="15.9" fill="white" transform="matrix(0.71502 -0.699104 -0.699104 -0.71502 306.329 44.0787)"/>
</clipPath>
<clipPath id="clip15_2_200">
<rect width="7.59" height="15.9" fill="white" transform="matrix(0.952783 -0.303651 -0.303651 -0.952783 330.828 93.4539)"/>
</clipPath>
<clipPath id="clip16_2_200">
<rect width="7.59" height="15.9" fill="white" transform="matrix(0.00837286 -0.999965 -0.999965 -0.00837286 262.055 13.0666)"/>
</clipPath>
<clipPath id="clip17_2_200">
<rect width="7.95125" height="15.9025" fill="white" transform="translate(165.875 104) rotate(21.6814)"/>
</clipPath>
<clipPath id="clip18_2_200">
<rect width="7.95125" height="15.9025" fill="white" transform="translate(346.845 116.972) rotate(160.307)"/>
</clipPath>
<clipPath id="clip19_2_200">
<rect width="7.95125" height="15.9025" fill="white" transform="translate(354.306 174.713) rotate(171.14)"/>
</clipPath>
<clipPath id="clip20_2_200">
<rect width="7.95125" height="15.9025" fill="white" transform="translate(359.306 230.713) rotate(171.14)"/>
</clipPath>
<clipPath id="clip21_2_200">
<rect width="7.95125" height="15.9025" fill="white" transform="translate(369.189 285.16) rotate(161.488)"/>
</clipPath>
<clipPath id="clip22_2_200">
<rect width="7.95125" height="15.9025" fill="white" transform="translate(406.663 300) rotate(67.2297)"/>
</clipPath>
<clipPath id="clip23_2_200">
<rect width="7.95125" height="15.9025" fill="white" transform="translate(451.53 267.642) rotate(50.8763)"/>
</clipPath>
<clipPath id="clip24_2_200">
<rect width="7.95125" height="15.9025" fill="white" transform="translate(488.083 227.324) rotate(35.6636)"/>
</clipPath>
<clipPath id="clip25_2_200">
<rect width="7.95125" height="15.9025" fill="white" transform="translate(514.817 179.888) rotate(26.2518)"/>
</clipPath>
<clipPath id="clip26_2_200">
<rect width="7.95125" height="15.9025" fill="white" transform="translate(535.861 129) rotate(17.7973)"/>
</clipPath>
<clipPath id="clip27_2_200">
<rect width="7.95125" height="15.9025" fill="white" transform="translate(555.861 80) rotate(17.7973)"/>
</clipPath>
<clipPath id="clip28_2_200">
<rect width="7.59" height="15.9" fill="white" transform="matrix(0.992095 -0.125485 -0.125485 -0.992095 342.262 148.09)"/>
</clipPath>
<clipPath id="clip29_2_200">
<rect width="7.59" height="15.9" fill="white" transform="matrix(0.992095 -0.125485 -0.125485 -0.992095 348.995 203.727)"/>
</clipPath>
<clipPath id="clip30_2_200">
<rect width="7.59" height="15.9" fill="white" transform="matrix(0.992095 -0.125485 -0.125485 -0.992095 354.995 260.727)"/>
</clipPath>
<clipPath id="clip31_2_200">
<rect width="7.59" height="15.9" fill="white" transform="matrix(0.651194 -0.758911 -0.758911 -0.651194 379.067 312.114)"/>
</clipPath>
<clipPath id="clip32_2_200">
<rect width="7.59" height="15.9" fill="white" transform="matrix(-0.530462 -0.847709 -0.847709 0.530462 434.505 292.434)"/>
</clipPath>
<clipPath id="clip33_2_200">
<rect width="7.59" height="15.9" fill="white" transform="matrix(-0.69233 -0.721581 -0.721581 0.69233 476.116 254.669)"/>
</clipPath>
<clipPath id="clip34_2_200">
<rect width="7.59" height="15.9" fill="white" transform="matrix(-0.812899 -0.582405 -0.582405 0.812899 510.43 208.42)"/>
</clipPath>
<clipPath id="clip35_2_200">
<rect width="7.59" height="15.9" fill="white" transform="matrix(-0.902259 -0.431194 -0.431194 0.902259 533.567 158.136)"/>
</clipPath>
<clipPath id="clip36_2_200">
<rect width="7.59" height="15.9" fill="white" transform="matrix(-0.902259 -0.431194 -0.431194 0.902259 554.704 106.273)"/>
</clipPath>
</defs>
</svg>
