<svg width="20" height="24" viewBox="0 0 20 24" fill="none" xmlns="http://www.w3.org/2000/svg">
<g clip-path="url(#clip0_1443_11607)">
<path d="M10 0C7.48126 0.00264713 5.06643 1.00439 3.28541 2.78541C1.50439 4.56643 0.502647 6.98126 0.5 9.5C0.5 16 7 22 9 23.65C9.26868 23.8763 9.60869 24.0005 9.96 24.0005C10.3113 24.0005 10.6513 23.8763 10.92 23.65C13 22 19.5 16 19.5 9.5C19.4974 6.98126 18.4956 4.56643 16.7146 2.78541C14.9336 1.00439 12.5187 0.00264713 10 0Z" fill="#0E376F"/>
<path d="M13.9906 9.42547C13.9758 9.36804 13.9441 9.31659 13.8999 9.278L10.183 6.06938C10.1321 6.02462 10.0672 6 10 6C9.93283 6 9.86789 6.02462 9.81701 6.06938L6.10011 9.278C6.05587 9.31659 6.02423 9.36804 6.00941 9.42547C5.9946 9.4829 5.99732 9.54357 6.01721 9.59938C6.03711 9.65519 6.07322 9.70348 6.12073 9.73779C6.16825 9.7721 6.22489 9.79079 6.28309 9.79138H6.85493C6.93076 9.79138 7.00348 9.82211 7.0571 9.87681C7.11072 9.93152 7.14084 10.0057 7.14084 10.0831V12.7083C7.14084 12.7857 7.17097 12.8599 7.22459 12.9146C7.2782 12.9693 7.35093 13 7.42676 13H8.85634C8.93217 13 9.00489 12.9693 9.05851 12.9146C9.11213 12.8599 9.14225 12.7857 9.14225 12.7083V11.3957C9.14225 11.1636 9.23262 10.941 9.39348 10.7769C9.55434 10.6128 9.77251 10.5206 10 10.5206C10.2275 10.5206 10.4457 10.6128 10.6065 10.7769C10.7674 10.941 10.8577 11.1636 10.8577 11.3957V12.7083C10.8577 12.7857 10.8879 12.8599 10.9415 12.9146C10.9951 12.9693 11.0678 13 11.1437 13H12.5732C12.6491 13 12.7218 12.9693 12.7754 12.9146C12.829 12.8599 12.8592 12.7857 12.8592 12.7083V10.0831C12.8592 10.0057 12.8893 9.93152 12.9429 9.87681C12.9965 9.82211 13.0692 9.79138 13.1451 9.79138H13.7169C13.7751 9.79079 13.8318 9.7721 13.8793 9.73779C13.9268 9.70348 13.9629 9.65519 13.9828 9.59938C14.0027 9.54357 14.0054 9.4829 13.9906 9.42547Z" fill="white"/>
</g>
<defs>
<clipPath id="clip0_1443_11607">
<rect width="20" height="24" fill="white"/>
</clipPath>
</defs>
</svg>
