<svg width="77" height="70" viewBox="0 0 77 70" fill="none" xmlns="http://www.w3.org/2000/svg">
<g clip-path="url(#clip0_1063_12795)">
<path d="M61.25 0H52.5C52.0359 0 51.5908 0.184375 51.2626 0.512563C50.9344 0.840752 50.75 1.28587 50.75 1.75V1.9565L63 11.7565V1.75C63 1.28587 62.8156 0.840752 62.4874 0.512563C62.1592 0.184375 61.7141 0 61.25 0Z" fill="white"/>
<path fill-rule="evenodd" clip-rule="evenodd" d="M34.125 22.75C34.125 21.5897 34.5859 20.4769 35.4064 19.6564C36.2269 18.8359 37.3397 18.375 38.5 18.375C39.6603 18.375 40.7731 18.8359 41.5936 19.6564C42.4141 20.4769 42.875 21.5897 42.875 22.75C42.875 23.9103 42.4141 25.0231 41.5936 25.8436C40.7731 26.6641 39.6603 27.125 38.5 27.125C37.3397 27.125 36.2269 26.6641 35.4064 25.8436C34.5859 25.0231 34.125 23.9103 34.125 22.75Z" fill="white"/>
<path fill-rule="evenodd" clip-rule="evenodd" d="M69.125 27.86L71.862 30.051C72.4069 30.4756 73.0971 30.6683 73.7831 30.5874C74.4692 30.5064 75.0956 30.1583 75.5267 29.6186C75.9578 29.0788 76.1587 28.3909 76.0859 27.7039C76.0132 27.017 75.6726 26.3865 75.138 25.949L46.7005 3.19898C44.373 1.3365 41.4809 0.321777 38.5 0.321777C35.5191 0.321777 32.627 1.3365 30.2995 3.19898L1.862 25.949C1.31804 26.3839 0.96912 27.017 0.891996 27.7092C0.814871 28.4013 1.01586 29.0958 1.45075 29.6397C1.88564 30.1837 2.5188 30.5326 3.21095 30.6097C3.9031 30.6869 4.59754 30.4859 5.1415 30.051L7.875 27.86V63.875H3.5C2.80381 63.875 2.13613 64.1515 1.64384 64.6438C1.15156 65.1361 0.875 65.8038 0.875 66.5C0.875 67.1962 1.15156 67.8638 1.64384 68.3561C2.13613 68.8484 2.80381 69.125 3.5 69.125H73.5C74.1962 69.125 74.8639 68.8484 75.3562 68.3561C75.8484 67.8638 76.125 67.1962 76.125 66.5C76.125 65.8038 75.8484 65.1361 75.3562 64.6438C74.8639 64.1515 74.1962 63.875 73.5 63.875H69.125V27.86ZM28.875 22.75C28.875 20.1973 29.8891 17.7491 31.6941 15.9441C33.4991 14.139 35.9473 13.125 38.5 13.125C41.0527 13.125 43.5009 14.139 45.3059 15.9441C47.1109 17.7491 48.125 20.1973 48.125 22.75C48.125 25.3027 47.1109 27.7508 45.3059 29.5559C43.5009 31.3609 41.0527 32.375 38.5 32.375C35.9473 32.375 33.4991 31.3609 31.6941 29.5559C29.8891 27.7508 28.875 25.3027 28.875 22.75ZM38.675 35.875C40.999 35.875 43.0045 35.875 44.611 36.092C46.333 36.323 47.9815 36.8445 49.3185 38.1815C50.6555 39.5185 51.177 41.167 51.408 42.889C51.611 44.394 51.625 46.249 51.625 48.3945V63.875H46.375V49C46.375 46.452 46.368 44.8 46.207 43.589C46.053 42.4515 45.808 42.0945 45.605 41.895C45.4055 41.6955 45.0485 41.447 43.911 41.293C42.6965 41.132 41.048 41.125 38.5 41.125C35.952 41.125 34.3 41.132 33.089 41.293C31.9515 41.447 31.5945 41.6955 31.395 41.895C31.1955 42.0945 30.947 42.4515 30.793 43.589C30.632 44.8035 30.625 46.452 30.625 49V63.875H25.375V48.825C25.375 46.501 25.375 44.4955 25.592 42.889C25.823 41.167 26.3445 39.5185 27.6815 38.1815C29.0185 36.8445 30.6705 36.323 32.389 36.092C33.9955 35.875 36.001 35.875 38.3285 35.875H38.6715H38.675Z" fill="white"/>
<path fill-rule="evenodd" clip-rule="evenodd" d="M34.125 22.75C34.125 21.5897 34.5859 20.4769 35.4064 19.6564C36.2269 18.8359 37.3397 18.375 38.5 18.375C39.6603 18.375 40.7731 18.8359 41.5936 19.6564C42.4141 20.4769 42.875 21.5897 42.875 22.75C42.875 23.9103 42.4141 25.0231 41.5936 25.8436C40.7731 26.6641 39.6603 27.125 38.5 27.125C37.3397 27.125 36.2269 26.6641 35.4064 25.8436C34.5859 25.0231 34.125 23.9103 34.125 22.75Z" fill="white"/>
</g>
<defs>
<clipPath id="clip0_1063_12795">
<rect width="77" height="70" fill="white"/>
</clipPath>
</defs>
</svg>
