<svg width="20" height="18" viewBox="0 0 20 18" fill="none" xmlns="http://www.w3.org/2000/svg">
<g clip-path="url(#clip0_1488_9663)">
<path d="M15.9092 0H13.6364C13.5159 0 13.4003 0.0474107 13.315 0.131802C13.2298 0.216193 13.1819 0.330653 13.1819 0.45V0.5031L16.3637 3.0231V0.45C16.3637 0.330653 16.3158 0.216193 16.2306 0.131802C16.1453 0.0474107 16.0297 0 15.9092 0Z" fill="black"/>
<path fill-rule="evenodd" clip-rule="evenodd" d="M8.86365 5.84998C8.86365 5.55161 8.98337 5.26546 9.19648 5.05448C9.40959 4.8435 9.69863 4.72498 10 4.72498C10.3014 4.72498 10.5904 4.8435 10.8035 5.05448C11.0167 5.26546 11.1364 5.55161 11.1364 5.84998C11.1364 6.14834 11.0167 6.43449 10.8035 6.64547C10.5904 6.85645 10.3014 6.97498 10 6.97498C9.69863 6.97498 9.40959 6.85645 9.19648 6.64547C8.98337 6.43449 8.86365 6.14834 8.86365 5.84998V5.84998Z" fill="black"/>
<path fill-rule="evenodd" clip-rule="evenodd" d="M17.9546 7.16402L18.6655 7.72742C18.807 7.8366 18.9863 7.88616 19.1645 7.86534C19.3427 7.84453 19.5054 7.75502 19.6173 7.61622C19.7293 7.47743 19.7815 7.30053 19.7626 7.12389C19.7437 6.94726 19.6552 6.78511 19.5164 6.67262L12.13 0.822615C11.5255 0.343692 10.7743 0.0827637 10 0.0827637C9.22576 0.0827637 8.47456 0.343692 7.87002 0.822615L0.483658 6.67262C0.34237 6.78444 0.251742 6.94726 0.231709 7.12524C0.211677 7.30322 0.263882 7.48179 0.37684 7.62167C0.489798 7.76154 0.654257 7.85126 0.834036 7.8711C1.01381 7.89093 1.19419 7.83925 1.33548 7.72742L2.04548 7.16402V16.425H0.909113C0.728284 16.425 0.554861 16.4961 0.426995 16.6227C0.299129 16.7493 0.227295 16.921 0.227295 17.1C0.227295 17.279 0.299129 17.4507 0.426995 17.5773C0.554861 17.7039 0.728284 17.775 0.909113 17.775H19.0909C19.2718 17.775 19.4452 17.7039 19.573 17.5773C19.7009 17.4507 19.7727 17.279 19.7727 17.1C19.7727 16.921 19.7009 16.7493 19.573 16.6227C19.4452 16.4961 19.2718 16.425 19.0909 16.425H17.9546V7.16402ZM7.50002 5.85002C7.50002 5.19361 7.76341 4.56408 8.23225 4.09993C8.7011 3.63577 9.33698 3.37502 10 3.37502C10.6631 3.37502 11.2989 3.63577 11.7678 4.09993C12.2366 4.56408 12.5 5.19361 12.5 5.85002C12.5 6.50643 12.2366 7.13595 11.7678 7.60011C11.2989 8.06426 10.6631 8.32502 10 8.32502C9.33698 8.32502 8.7011 8.06426 8.23225 7.60011C7.76341 7.13595 7.50002 6.50643 7.50002 5.85002ZM10.0455 9.22502C10.6491 9.22502 11.17 9.22502 11.5873 9.28082C12.0346 9.34022 12.4627 9.47432 12.81 9.81812C13.1573 10.1619 13.2927 10.5858 13.3527 11.0286C13.4055 11.4156 13.4091 11.8926 13.4091 12.4443V16.425H12.0455V12.6C12.0455 11.9448 12.0437 11.52 12.0018 11.2086C11.9618 10.9161 11.8982 10.8243 11.8455 10.773C11.7937 10.7217 11.7009 10.6578 11.4055 10.6182C11.09 10.5768 10.6618 10.575 10 10.575C9.3382 10.575 8.90911 10.5768 8.59457 10.6182C8.29911 10.6578 8.20639 10.7217 8.15457 10.773C8.10275 10.8243 8.0382 10.9161 7.9982 11.2086C7.95639 11.5209 7.95457 11.9448 7.95457 12.6V16.425H6.59093V12.555C6.59093 11.9574 6.59093 11.4417 6.64729 11.0286C6.70729 10.5858 6.84275 10.1619 7.19002 9.81812C7.5373 9.47432 7.96639 9.34022 8.41275 9.28082C8.83002 9.22502 9.35093 9.22502 9.95548 9.22502H10.0446H10.0455Z" fill="black"/>
<path fill-rule="evenodd" clip-rule="evenodd" d="M8.86365 5.84998C8.86365 5.55161 8.98337 5.26546 9.19648 5.05448C9.40959 4.8435 9.69863 4.72498 10 4.72498C10.3014 4.72498 10.5904 4.8435 10.8035 5.05448C11.0167 5.26546 11.1364 5.55161 11.1364 5.84998C11.1364 6.14834 11.0167 6.43449 10.8035 6.64547C10.5904 6.85645 10.3014 6.97498 10 6.97498C9.69863 6.97498 9.40959 6.85645 9.19648 6.64547C8.98337 6.43449 8.86365 6.14834 8.86365 5.84998V5.84998Z" fill="black"/>
</g>
<defs>
<clipPath id="clip0_1488_9663">
<rect width="20" height="18" fill="white"/>
</clipPath>
</defs>
</svg>
