<svg width="30" height="30" viewBox="0 0 30 30" fill="none" xmlns="http://www.w3.org/2000/svg">
<g clip-path="url(#clip0_1368_2403)">
<path d="M26.25 1.95656C26.7473 1.95656 27.2242 2.1627 27.5758 2.52963C27.9275 2.89656 28.125 3.39422 28.125 3.91313V19.5656C28.125 20.0846 27.9275 20.5822 27.5758 20.9491C27.2242 21.3161 26.7473 21.5222 26.25 21.5222H21.5625C20.9803 21.5222 20.4062 21.6636 19.8854 21.9353C19.3647 22.207 18.9118 22.6015 18.5625 23.0875L15 28.0434L11.4375 23.0875C11.0882 22.6015 10.6353 22.207 10.1146 21.9353C9.59384 21.6636 9.01967 21.5222 8.4375 21.5222H3.75C3.25272 21.5222 2.77581 21.3161 2.42417 20.9491C2.07254 20.5822 1.875 20.0846 1.875 19.5656V3.91313C1.875 3.39422 2.07254 2.89656 2.42417 2.52963C2.77581 2.1627 3.25272 1.95656 3.75 1.95656H26.25ZM3.75 0C2.75544 0 1.80161 0.412275 1.09835 1.14613C0.395088 1.87998 0 2.8753 0 3.91313L0 19.5656C0 20.6035 0.395088 21.5988 1.09835 22.3326C1.80161 23.0665 2.75544 23.4788 3.75 23.4788H8.4375C8.72858 23.4788 9.01567 23.5495 9.27603 23.6853C9.53638 23.8212 9.76285 24.0184 9.9375 24.2614L13.5 29.2174C13.6747 29.4604 13.9011 29.6576 14.1615 29.7934C14.4218 29.9293 14.7089 30 15 30C15.2911 30 15.5782 29.9293 15.8385 29.7934C16.0989 29.6576 16.3253 29.4604 16.5 29.2174L20.0625 24.2614C20.2372 24.0184 20.4636 23.8212 20.724 23.6853C20.9843 23.5495 21.2714 23.4788 21.5625 23.4788H26.25C27.2446 23.4788 28.1984 23.0665 28.9016 22.3326C29.6049 21.5988 30 20.6035 30 19.5656V3.91313C30 2.8753 29.6049 1.87998 28.9016 1.14613C28.1984 0.412275 27.2446 0 26.25 0L3.75 0Z" fill="black"/>
<path d="M7 7.85C7 7.62457 7.08955 7.40837 7.24896 7.24896C7.40837 7.08955 7.62457 7 7.85 7H23.15C23.3754 7 23.5916 7.08955 23.751 7.24896C23.9104 7.40837 24 7.62457 24 7.85C24 8.07543 23.9104 8.29163 23.751 8.45104C23.5916 8.61045 23.3754 8.7 23.15 8.7H7.85C7.62457 8.7 7.40837 8.61045 7.24896 8.45104C7.08955 8.29163 7 8.07543 7 7.85ZM7 12.1C7 11.8746 7.08955 11.6584 7.24896 11.499C7.40837 11.3396 7.62457 11.25 7.85 11.25H23.15C23.3754 11.25 23.5916 11.3396 23.751 11.499C23.9104 11.6584 24 11.8746 24 12.1C24 12.3254 23.9104 12.5416 23.751 12.701C23.5916 12.8604 23.3754 12.95 23.15 12.95H7.85C7.62457 12.95 7.40837 12.8604 7.24896 12.701C7.08955 12.5416 7 12.3254 7 12.1ZM7 16.35C7 16.1246 7.08955 15.9084 7.24896 15.749C7.40837 15.5896 7.62457 15.5 7.85 15.5H16.35C16.5754 15.5 16.7916 15.5896 16.951 15.749C17.1104 15.9084 17.2 16.1246 17.2 16.35C17.2 16.5754 17.1104 16.7916 16.951 16.951C16.7916 17.1104 16.5754 17.2 16.35 17.2H7.85C7.62457 17.2 7.40837 17.1104 7.24896 16.951C7.08955 16.7916 7 16.5754 7 16.35Z" fill="black"/>
</g>
<defs>
<clipPath id="clip0_1368_2403">
<rect width="30" height="30" fill="white"/>
</clipPath>
</defs>
</svg>
