<svg width="51" height="51" viewBox="0 0 51 51" fill="none" xmlns="http://www.w3.org/2000/svg">
<g clip-path="url(#clip0_1063_11768)">
<path d="M24.6908 14.2143H15.8092C14.7623 14.2143 13.7582 14.6207 13.018 15.344C12.2777 16.0674 11.8618 17.0485 11.8618 18.0714V35.4286C11.8618 36.4515 12.2777 37.4326 13.018 38.156C13.7582 38.8793 14.7623 39.2857 15.8092 39.2857H35.546C36.5929 39.2857 37.597 38.8793 38.3372 38.156C39.0775 37.4326 39.4934 36.4515 39.4934 35.4286V26.75" stroke="#0E376F" stroke-width="2" stroke-linecap="round" stroke-linejoin="round"/>
<path d="M35.5461 16.1429L37.427 18.0714M39.4934 12.2221C40.0196 12.7537 40.3109 13.466 40.3046 14.2056C40.2984 14.9451 39.995 15.6526 39.4599 16.1756L25.6776 29.6429L19.7566 31.5714L21.7303 25.7857L35.5204 12.197C36.0052 11.7196 36.6539 11.4349 37.3411 11.3979C38.0284 11.3608 38.7052 11.5741 39.2408 11.9964L39.4934 12.2221Z" stroke="#0E376F" stroke-width="2" stroke-linecap="round" stroke-linejoin="round"/>
</g>
<defs>
<clipPath id="clip0_1063_11768">
<rect width="30" height="30" fill="white" transform="translate(10.875 10.25)"/>
</clipPath>
</defs>
</svg>
