<svg width="51" height="50" viewBox="0 0 51 50" fill="none" xmlns="http://www.w3.org/2000/svg">
<g clip-path="url(#clip0_329_162)">
<path d="M24.6908 13.9643H15.8092C14.7623 13.9643 13.7582 14.3707 13.018 15.094C12.2777 15.8174 11.8618 16.7985 11.8618 17.8214V35.1786C11.8618 36.2016 12.2777 37.1826 13.018 37.906C13.7582 38.6293 14.7623 39.0357 15.8092 39.0357H35.546C36.5929 39.0357 37.597 38.6293 38.3372 37.906C39.0775 37.1826 39.4934 36.2016 39.4934 35.1786V26.5" stroke="#F9FBFF" stroke-width="2" stroke-linecap="round" stroke-linejoin="round"/>
<path d="M35.5461 15.8929L37.427 17.8214M39.4934 11.9721C40.0196 12.5037 40.3109 13.2161 40.3046 13.9556C40.2984 14.6951 39.995 15.4026 39.4599 15.9257L25.6776 29.3929L19.7566 31.3214L21.7303 25.5357L35.5204 11.947C36.0052 11.4697 36.6539 11.1849 37.3411 11.1479C38.0284 11.1108 38.7052 11.3241 39.2408 11.7464L39.4934 11.9721Z" stroke="#F9FBFF" stroke-width="2" stroke-linecap="round" stroke-linejoin="round"/>
</g>
<defs>
<clipPath id="clip0_329_162">
<rect width="30" height="30" fill="white" transform="translate(10.875 10)"/>
</clipPath>
</defs>
</svg>
