<svg width="51" height="50" viewBox="0 0 51 50" fill="none" xmlns="http://www.w3.org/2000/svg">
<g clip-path="url(#clip0_1311_35022)">
<path d="M24.6908 13.9644H15.8092C14.7623 13.9644 13.7582 14.3707 13.018 15.0941C12.2777 15.8174 11.8618 16.7985 11.8618 17.8215V35.1786C11.8618 36.2016 12.2777 37.1827 13.018 37.906C13.7582 38.6294 14.7623 39.0358 15.8092 39.0358H35.546C36.5929 39.0358 37.597 38.6294 38.3372 37.906C39.0775 37.1827 39.4934 36.2016 39.4934 35.1786V26.5001" stroke="black" stroke-width="2" stroke-linecap="round" stroke-linejoin="round"/>
<path d="M35.5461 15.8927L37.427 17.8213M39.4934 11.9719C40.0196 12.5035 40.3109 13.2159 40.3046 13.9554C40.2984 14.6949 39.995 15.4025 39.4599 15.9255L25.6776 29.3927L19.7566 31.3213L21.7303 25.5355L35.5204 11.9468C36.0052 11.4695 36.6539 11.1847 37.3411 11.1477C38.0284 11.1106 38.7052 11.3239 39.2408 11.7463L39.4934 11.9719Z" stroke="black" stroke-width="2" stroke-linecap="round" stroke-linejoin="round"/>
</g>
<defs>
<clipPath id="clip0_1311_35022">
<rect width="30" height="30" fill="white" transform="translate(10.875 10)"/>
</clipPath>
</defs>
</svg>
