<svg width="20" height="20" viewBox="0 0 20 20" fill="none" xmlns="http://www.w3.org/2000/svg">
<g clip-path="url(#clip0_1441_11604)">
<path fill-rule="evenodd" clip-rule="evenodd" d="M12.3771 1.9186C12.3771 2.51003 12.8571 2.99003 13.4486 2.99003H17.01V6.55146C17.01 6.83562 17.1229 7.10814 17.3238 7.30907C17.5247 7.51 17.7973 7.62288 18.0814 7.62288C18.3656 7.62288 18.6381 7.51 18.839 7.30907C19.04 7.10814 19.1529 6.83562 19.1529 6.55146V1.9186C19.1529 1.63444 19.04 1.36191 18.839 1.16098C18.6381 0.96005 18.3656 0.847168 18.0814 0.847168H13.4486C13.1644 0.847168 12.8919 0.96005 12.691 1.16098C12.49 1.36191 12.3771 1.63444 12.3771 1.9186ZM18.0814 12.3772C17.7973 12.3772 17.5247 12.4901 17.3238 12.691C17.1229 12.8919 17.01 13.1644 17.01 13.4486V17.01H13.4486C13.1644 17.01 12.8919 17.1229 12.691 17.3238C12.49 17.5248 12.3771 17.7973 12.3771 18.0815C12.3771 18.3656 12.49 18.6381 12.691 18.8391C12.8919 19.04 13.1644 19.1529 13.4486 19.1529H18.0814C18.3656 19.1529 18.6381 19.04 18.839 18.8391C19.04 18.6381 19.1529 18.3656 19.1529 18.0815V13.4486C19.1529 13.1644 19.04 12.8919 18.839 12.691C18.6381 12.4901 18.3656 12.3772 18.0814 12.3772ZM1.91857 12.3772C2.20273 12.3772 2.47525 12.4901 2.67618 12.691C2.87711 12.8919 2.98999 13.1644 2.98999 13.4486V17.01H6.55142C6.83559 17.01 7.10811 17.1229 7.30904 17.3238C7.50997 17.5248 7.62285 17.7973 7.62285 18.0815C7.62285 18.3656 7.50997 18.6381 7.30904 18.8391C7.10811 19.04 6.83559 19.1529 6.55142 19.1529H1.91857C1.63441 19.1529 1.36188 19.04 1.16095 18.8391C0.96002 18.6381 0.847137 18.3656 0.847137 18.0815V13.4486C0.847137 13.1644 0.96002 12.8919 1.16095 12.691C1.36188 12.4901 1.63441 12.3772 1.91857 12.3772ZM7.62285 1.9186C7.62285 2.20276 7.50997 2.47528 7.30904 2.67621C7.10811 2.87714 6.83559 2.99003 6.55142 2.99003H2.98999V6.55146C2.98999 6.83562 2.87711 7.10814 2.67618 7.30907C2.47525 7.51 2.20273 7.62288 1.91857 7.62288C1.63441 7.62288 1.36188 7.51 1.16095 7.30907C0.96002 7.10814 0.847137 6.83562 0.847137 6.55146V1.9186C0.847137 1.63444 0.96002 1.36191 1.16095 1.16098C1.36188 0.96005 1.63441 0.847168 1.91857 0.847168H6.55142C6.83559 0.847168 7.10811 0.96005 7.30904 1.16098C7.50997 1.36191 7.62285 1.63444 7.62285 1.9186Z" fill="black"/>
</g>
<defs>
<clipPath id="clip0_1441_11604">
<rect width="20" height="20" fill="white"/>
</clipPath>
</defs>
</svg>
