<svg width="55" height="51" viewBox="0 0 55 51" fill="none" xmlns="http://www.w3.org/2000/svg">
<g clip-path="url(#clip0_329_478)">
<path d="M16.5576 28.25H16.7178C17.8933 28.9439 19.2109 29.375 20.6377 29.375C22.0628 29.375 23.3844 28.9446 24.5576 28.25H24.7178C26.0247 28.2501 27.2827 28.9492 28.2471 30.2256C29.2118 31.5024 29.8378 33.3112 29.8379 35.3496V37.375C29.8379 38.1091 29.6115 38.7365 29.293 39.1582C28.9747 39.5795 28.6086 39.75 28.2871 39.75H12.9873C12.6658 39.7499 12.3007 39.5794 11.9824 39.1582C11.6638 38.7364 11.4375 38.1092 11.4375 37.375V35.3496C11.4376 33.3112 12.0636 31.5024 13.0283 30.2256C13.9326 29.0289 15.0947 28.3392 16.3135 28.2578L16.5576 28.25ZM38.4912 28.25C39.7523 28.2513 40.9656 28.925 41.8975 30.1582C42.8308 31.3935 43.4375 33.1457 43.4375 35.125C43.4375 35.8592 43.2112 36.4864 42.8926 36.9082C42.5743 37.3294 42.2092 37.4999 41.8877 37.5H32.6875V35.3496C32.6874 32.8775 32.0572 30.5899 30.998 28.7158C31.1982 28.6412 31.4213 28.5713 31.6611 28.5078C32.3031 28.3379 32.9463 28.2506 33.3828 28.25C34.155 28.5794 35.009 28.8125 35.9375 28.8125C36.8657 28.8125 37.7192 28.5792 38.4912 28.25Z" fill="#0E376F" stroke="#0E376F" stroke-width="2"/>
<path d="M20.4927 11.75C23.7029 11.75 26.2925 14.3313 26.2925 17.5C26.2925 20.6687 23.7029 23.25 20.4927 23.25C17.2825 23.2499 14.6929 20.6686 14.6929 17.5C14.6929 14.3314 17.2825 11.7501 20.4927 11.75Z" fill="#0E376F" stroke="#0E376F" stroke-width="2"/>
<path d="M35.6201 14.75C37.9957 14.7501 39.9092 16.6598 39.9092 19C39.9092 21.3402 37.9957 23.2499 35.6201 23.25C33.2445 23.25 31.3311 21.3403 31.3311 19C31.3311 16.6597 33.2445 14.75 35.6201 14.75Z" fill="#0E376F" stroke="#0E376F" stroke-width="2"/>
</g>
<defs>
<clipPath id="clip0_329_478">
<rect width="34" height="30" fill="white" transform="translate(10.4375 10.75)"/>
</clipPath>
</defs>
</svg>
