<svg width="55" height="50" viewBox="0 0 55 50" fill="none" xmlns="http://www.w3.org/2000/svg">
<g clip-path="url(#clip0_1311_35023)">
<path d="M16.5576 27.5H16.7178C17.8933 28.1939 19.2109 28.625 20.6377 28.625C22.0628 28.625 23.3844 28.1946 24.5576 27.5H24.7178C26.0247 27.5001 27.2827 28.1992 28.2471 29.4756C29.2118 30.7524 29.8378 32.5612 29.8379 34.5996V36.625C29.8379 37.3591 29.6115 37.9865 29.293 38.4082C28.9747 38.8295 28.6086 39 28.2871 39H12.9873C12.6658 38.9999 12.3007 38.8294 11.9824 38.4082C11.6638 37.9864 11.4375 37.3592 11.4375 36.625V34.5996C11.4376 32.5612 12.0636 30.7524 13.0283 29.4756C13.9927 28.1992 15.2507 27.5 16.5576 27.5ZM38.4912 27.5C39.7523 27.5013 40.9656 28.175 41.8975 29.4082C42.8308 30.6435 43.4375 32.3957 43.4375 34.375C43.4375 35.1092 43.2112 35.7364 42.8926 36.1582C42.5743 36.5794 42.2092 36.7499 41.8877 36.75H32.6875V34.5996C32.6874 32.1275 32.0572 29.8399 30.998 27.9658C31.1982 27.8912 31.4213 27.8213 31.6611 27.7578C32.3031 27.5879 32.9463 27.5006 33.3828 27.5C34.155 27.8294 35.009 28.0625 35.9375 28.0625C36.8657 28.0625 37.7192 27.8292 38.4912 27.5Z" stroke="black" stroke-width="2"/>
<path d="M20.4927 11C23.7029 11 26.2925 13.5813 26.2925 16.75C26.2925 19.9187 23.7029 22.5 20.4927 22.5C17.2825 22.4999 14.6929 19.9186 14.6929 16.75C14.6929 13.5814 17.2825 11.0001 20.4927 11Z" stroke="black" stroke-width="2"/>
<path d="M35.6201 14C37.9957 14.0001 39.9092 15.9098 39.9092 18.25C39.9092 20.5902 37.9957 22.4999 35.6201 22.5C33.2445 22.5 31.3311 20.5903 31.3311 18.25C31.3311 15.9097 33.2445 14 35.6201 14Z" stroke="black" stroke-width="2"/>
</g>
<defs>
<clipPath id="clip0_1311_35023">
<rect width="34" height="30" fill="white" transform="translate(10.4375 10)"/>
</clipPath>
</defs>
</svg>
