<svg width="40" height="40" viewBox="0 0 40 40" fill="none" xmlns="http://www.w3.org/2000/svg">
<g clip-path="url(#clip0_557_10862)">
<circle opacity="0.2" cx="20" cy="20" r="10" fill="black"/>
<path fill-rule="evenodd" clip-rule="evenodd" d="M20 40C8.954 40 0 31.046 0 20C0 8.954 8.954 0 20 0C31.046 0 40 8.954 40 20C40 31.046 31.046 40 20 40ZM19.06 12.94C18.7787 12.6591 18.3975 12.5013 18 12.5013C17.6025 12.5013 17.2213 12.6591 16.94 12.94L10.94 18.94C10.6591 19.2213 10.5013 19.6025 10.5013 20C10.5013 20.3975 10.6591 20.7787 10.94 21.06L16.94 27.06C17.0773 27.2074 17.2429 27.3256 17.4269 27.4076C17.6109 27.4895 17.8096 27.5336 18.011 27.5372C18.2124 27.5407 18.4124 27.5037 18.5992 27.4282C18.786 27.3528 18.9556 27.2405 19.0981 27.0981C19.2405 26.9556 19.3528 26.786 19.4282 26.5992C19.5037 26.4124 19.5407 26.2124 19.5372 26.011C19.5336 25.8096 19.4895 25.6109 19.4076 25.4269C19.3256 25.2429 19.2074 25.0773 19.06 24.94L15.62 21.5H28C28.3978 21.5 28.7794 21.342 29.0607 21.0607C29.342 20.7794 29.5 20.3978 29.5 20C29.5 19.6022 29.342 19.2206 29.0607 18.9393C28.7794 18.658 28.3978 18.5 28 18.5H15.62L19.06 15.06C19.3409 14.7787 19.4987 14.3975 19.4987 14C19.4987 13.6025 19.3409 13.2213 19.06 12.94Z" fill="white"/>
</g>
<defs>
<clipPath id="clip0_557_10862">
<rect width="40" height="40" fill="white"/>
</clipPath>
</defs>
</svg>
