<svg width="40" height="40" viewBox="0 0 40 40" fill="none" xmlns="http://www.w3.org/2000/svg">
<path d="M20 40C31.0456 40 40 31.0456 40 20C40 8.9543 31.0456 0 20 0C8.9543 0 0 8.9543 0 20C0 31.0456 8.9543 40 20 40Z" fill="black"/>
<path d="M26.999 18.4998H16.619L20.059 15.0599C20.639 14.4799 20.639 13.5199 20.059 12.9399C19.479 12.3599 18.519 12.3599 17.939 12.9399L11.9389 18.9398C11.3589 19.5198 11.3589 20.4798 11.9389 21.0598L17.939 27.0598C18.239 27.3598 18.619 27.4998 18.999 27.4998C19.379 27.4998 19.759 27.3598 20.059 27.0598C20.639 26.4798 20.639 25.5198 20.059 24.9398L16.619 21.4998H26.999C27.819 21.4998 28.499 20.8198 28.499 19.9998C28.499 19.1798 27.819 18.4998 26.999 18.4998Z" fill="white"/>
</svg>
