<svg width="50" height="50" viewBox="0 0 50 50" fill="none" xmlns="http://www.w3.org/2000/svg">
<path d="M38.999 22.999L39 23V37C39 37.5304 38.7891 38.039 38.4141 38.4141C38.039 38.7891 37.5304 39 37 39H29V33C29 31.9392 28.5783 30.922 27.8281 30.1719C27.078 29.4217 26.0608 29 25 29C23.9392 29 22.922 29.4217 22.1719 30.1719C21.4217 30.922 21 31.9392 21 33V39H13C12.4696 39 11.961 38.7891 11.5859 38.4141C11.2109 38.039 11 37.5304 11 37V23L11.001 22.999L25 10.999L38.999 22.999Z" stroke="black" stroke-width="2"/>
</svg>
