<svg width="50" height="51" viewBox="0 0 50 51" fill="none" xmlns="http://www.w3.org/2000/svg">
<path d="M38.999 23.249L39 23.25V37.25C39 37.7804 38.7891 38.289 38.4141 38.6641C38.039 39.0391 37.5304 39.25 37 39.25H29V33.25C29 32.1892 28.5783 31.172 27.8281 30.4219C27.078 29.6717 26.0608 29.25 25 29.25C23.9392 29.25 22.922 29.6717 22.1719 30.4219C21.4217 31.172 21 32.1892 21 33.25V39.25H13C12.4696 39.25 11.961 39.0391 11.5859 38.6641C11.2109 38.289 11 37.7804 11 37.25V23.25L11.001 23.249L25 11.249L38.999 23.249Z" fill="#0E376F" stroke="#0E376F" stroke-width="2"/>
</svg>
