<svg width="19" height="24" viewBox="0 0 19 24" fill="none" xmlns="http://www.w3.org/2000/svg">
<g clip-path="url(#clip0_1443_11613)">
<circle cx="9.5" cy="9.5" r="3.5" fill="white"/>
<path fill-rule="evenodd" clip-rule="evenodd" d="M9.07928 23.4804L9.08336 23.4818C9.35071 23.6011 9.5 23.5733 9.5 23.5733C9.5 23.5733 9.64928 23.6011 9.918 23.4818L9.92071 23.4804L9.92886 23.4763L9.95328 23.4652C10.082 23.4039 10.2092 23.3391 10.3346 23.271C10.5871 23.1379 10.9399 22.9382 11.362 22.6706C12.2034 22.1381 13.3231 21.3311 14.4481 20.2231C16.6956 18.01 19 14.5503 19 9.70667C19 8.43197 18.7543 7.16975 18.2769 5.99209C17.7994 4.81442 17.0997 3.74436 16.2175 2.84302C15.3354 1.94167 14.2881 1.22668 13.1355 0.738876C11.9829 0.25107 10.7476 0 9.5 0C8.25244 0 7.0171 0.25107 5.86451 0.738876C4.71191 1.22668 3.66464 1.94167 2.78249 2.84302C1.90033 3.74436 1.20056 4.81442 0.723145 5.99209C0.245725 7.16975 -1.85901e-08 8.43197 0 9.70667C0 14.5489 2.30443 18.01 4.55321 20.2231C5.49453 21.1474 6.5285 21.9677 7.638 22.6706C8.06782 22.9429 8.50982 23.1947 8.96257 23.425L9.04671 23.4652L9.07114 23.4763L9.07928 23.4804ZM9.5 12.8267C10.3099 12.8267 11.0865 12.498 11.6592 11.9128C12.2319 11.3277 12.5536 10.5341 12.5536 9.70667C12.5536 8.87919 12.2319 8.08561 11.6592 7.50049C11.0865 6.91538 10.3099 6.58667 9.5 6.58667C8.69014 6.58667 7.91345 6.91538 7.3408 7.50049C6.76814 8.08561 6.44643 8.87919 6.44643 9.70667C6.44643 10.5341 6.76814 11.3277 7.3408 11.9128C7.91345 12.498 8.69014 12.8267 9.5 12.8267Z" fill="#0E376F"/>
</g>
<defs>
<clipPath id="clip0_1443_11613">
<rect width="19" height="24" fill="white"/>
</clipPath>
</defs>
</svg>
