<svg width="80" height="80" viewBox="0 0 80 80" fill="none" xmlns="http://www.w3.org/2000/svg">
<g clip-path="url(#clip0_1063_12807)">
<path fill-rule="evenodd" clip-rule="evenodd" d="M46 0C38.304 0 32 6.28799 32 13.9608C32 15.0808 32.136 16.1688 32.3888 17.2144L27.3328 19.5624L2.8424 8.18639C2.58414 8.06629 2.30321 8.00274 2.0184 7.99999C1.75421 7.99756 1.49216 8.0475 1.24738 8.14692C1.0026 8.24634 0.779947 8.39327 0.592277 8.57923C0.404606 8.76519 0.25564 8.98649 0.153982 9.23035C0.0523237 9.47421 -1.11794e-05 9.73579 1.79123e-09 9.99999L1.79123e-09 66.2319C6.39608e-05 66.6131 0.109059 66.9864 0.314148 67.3077C0.519237 67.629 0.811877 67.885 1.1576 68.0455L26.4904 79.8135C26.7599 79.9388 27.054 80.0025 27.3512 79.9999C27.6365 79.9976 27.918 79.9344 28.1768 79.8143L52.6672 68.4375L77.1576 79.8135C77.4623 79.955 77.7978 80.0175 78.1331 79.9951C78.4683 79.9728 78.7925 79.8663 79.0758 79.6856C79.359 79.5049 79.5922 79.2557 79.7537 78.9611C79.9152 78.6665 79.9999 78.3359 80 77.9999V21.768C79.9999 21.3868 79.8909 21.0136 79.6859 20.6923C79.4808 20.3709 79.1881 20.1149 78.8424 19.9544L59.6872 11.056C58.336 4.76319 52.6968 0 46 0ZM46 6.54239C50.144 6.54239 53.4392 9.82879 53.4392 13.9608C53.4392 18.0928 50.1432 21.3784 46 21.3784C41.856 21.3784 38.5608 18.0928 38.5608 13.9608C38.5608 9.82879 41.8568 6.54239 46 6.54239ZM4 13.1344L25.82 23.2704L26.1168 75.2303L4 64.9535V13.1344ZM59.8984 15.564L76 23.044V74.8655L53.8576 64.5799L53.6512 28.5656L58.4328 20.4296C58.6496 20.0376 58.82 19.6208 58.9688 19.1936C59.442 18.0315 59.7548 16.8104 59.8984 15.564ZM33.8936 20.9264C34.1016 21.2832 34.3184 21.6328 34.556 21.9688L44.292 38.7968C45.6552 40.5784 46.5616 40.24 47.6952 38.7032L51.2752 32.6112L51.4576 64.5871L28.5168 75.2455L28.2216 23.5608L33.8936 20.9264Z" fill="white"/>
</g>
<defs>
<clipPath id="clip0_1063_12807">
<rect width="80" height="80" fill="white"/>
</clipPath>
</defs>
</svg>
