<svg width="20" height="18" viewBox="0 0 20 18" fill="none" xmlns="http://www.w3.org/2000/svg">
<g clip-path="url(#clip0_1488_9614)">
<path fill-rule="evenodd" clip-rule="evenodd" d="M11.5 0C9.576 0 8 1.4148 8 3.14118C8 3.39318 8.034 3.63798 8.0972 3.87324L6.8332 4.40154L0.7106 1.84194C0.646035 1.81492 0.575801 1.80062 0.5046 1.8C0.438553 1.79945 0.37304 1.81069 0.311845 1.83306C0.250651 1.85543 0.194987 1.88849 0.148069 1.93033C0.101152 1.97217 0.06391 2.02196 0.0384954 2.07683C0.0130809 2.1317 -2.79484e-06 2.19055 4.47807e-10 2.25L4.47807e-10 14.9022C1.59902e-05 14.988 0.0272649 15.0719 0.0785371 15.1442C0.129809 15.2165 0.202969 15.2741 0.2894 15.3102L6.6226 17.958C6.68998 17.9862 6.7635 18.0006 6.8378 18C6.90912 17.9995 6.9795 17.9852 7.0442 17.9582L13.1668 15.3984L19.2894 17.958C19.3656 17.9899 19.4495 18.0039 19.5333 17.9989C19.6171 17.9939 19.6981 17.9699 19.7689 17.9293C19.8398 17.8886 19.898 17.8325 19.9384 17.7662C19.9788 17.7 20 17.6256 20 17.55V4.8978C20 4.81203 19.9727 4.72805 19.9215 4.65576C19.8702 4.58346 19.797 4.52586 19.7106 4.48974L14.9218 2.4876C14.584 1.07172 13.1742 0 11.5 0ZM11.5 1.47204C12.536 1.47204 13.3598 2.21148 13.3598 3.14118C13.3598 4.07088 12.5358 4.81014 11.5 4.81014C10.464 4.81014 9.6402 4.07088 9.6402 3.14118C9.6402 2.21148 10.4642 1.47204 11.5 1.47204ZM1 2.95524L6.455 5.23583L6.5292 16.9268L1 14.6145V2.95524ZM14.9746 3.5019L19 5.1849V16.8447L13.4644 14.5305L13.4128 6.42725L14.6082 4.59666C14.6624 4.50846 14.705 4.41468 14.7422 4.31856C14.8605 4.05709 14.9387 3.78235 14.9746 3.5019ZM8.4734 4.70844C8.5254 4.78872 8.5796 4.86738 8.639 4.94298L11.073 8.72927C11.4138 9.13013 11.6404 9.05399 11.9238 8.70821L12.8188 7.33751L12.8644 14.5321L7.1292 16.9302L7.0554 5.30117L8.4734 4.70844Z" fill="black"/>
</g>
<defs>
<clipPath id="clip0_1488_9614">
<rect width="20" height="18" fill="white"/>
</clipPath>
</defs>
</svg>
