<svg width="20" height="18" viewBox="0 0 20 18" fill="none" xmlns="http://www.w3.org/2000/svg">
<g clip-path="url(#clip0_1490_9724)">
<path d="M13.9676 7.8729C14.3782 7.87392 14.785 7.8016 15.1644 7.66015C15.5438 7.5187 15.8882 7.31092 16.1777 7.04884L19.1856 4.34356C19.4235 4.12946 19.4453 3.78106 19.2188 3.55641C19.1619 3.49997 19.0929 3.45452 19.0159 3.42282C18.9389 3.39111 18.8556 3.37381 18.7709 3.37197C18.6863 3.37013 18.6021 3.38379 18.5235 3.41211C18.4449 3.44043 18.3735 3.48283 18.3137 3.53673L15.6328 5.94774C15.5428 6.02866 15.4208 6.07411 15.2936 6.07411C15.1663 6.07411 15.0443 6.02866 14.9543 5.94774C14.7672 5.7797 14.7774 5.49563 14.9641 5.32759L17.6332 2.92536C17.693 2.87151 17.7401 2.80728 17.7715 2.73658C17.803 2.66588 17.8181 2.59016 17.8161 2.51403C17.814 2.4379 17.7948 2.36294 17.7596 2.29368C17.7244 2.22443 17.674 2.16233 17.6113 2.11114C17.4982 2.01881 17.3508 1.968 17.1981 1.96876C17.1124 1.96879 17.0275 1.98402 16.9484 2.01358C16.8692 2.04314 16.7973 2.08645 16.7367 2.14102L14.0699 4.54079C13.9799 4.6217 13.8579 4.66715 13.7307 4.66715C13.6035 4.66715 13.4814 4.6217 13.3914 4.54079C13.2047 4.37274 13.2145 4.08868 13.4012 3.92063L16.0703 1.51911C16.1302 1.46526 16.1772 1.40104 16.2086 1.33033C16.2401 1.25963 16.2552 1.18391 16.2532 1.10778C16.2511 1.03165 16.2319 0.956688 16.1967 0.887433C16.1616 0.818179 16.1111 0.756077 16.0485 0.704891C15.9353 0.612557 15.7879 0.561752 15.6352 0.562508C15.4621 0.562693 15.2962 0.624644 15.1738 0.734774L12.168 3.44005C11.8768 3.7007 11.6459 4.01074 11.4887 4.35224C11.3316 4.69374 11.2512 5.05991 11.2524 5.42954V5.71888C11.2524 5.79285 11.2363 5.86611 11.2048 5.93446C11.1734 6.00281 11.1273 6.06491 11.0692 6.1172L9.67814 7.36946C9.66363 7.38254 9.64639 7.39291 9.62743 7.39999C9.60846 7.40706 9.58812 7.41071 9.56759 7.41071C9.54706 7.41071 9.52673 7.40706 9.50776 7.39999C9.48879 7.39291 9.47156 7.38254 9.45704 7.36946L2.68829 1.27723C2.57147 1.17197 2.41307 1.11265 2.24776 1.11226C2.08246 1.11186 1.92371 1.17042 1.80626 1.27513C1.21447 1.80282 0.898451 2.54778 0.898451 3.42915C0.894545 4.88462 1.74454 6.55806 3.11681 7.79134L6.4547 10.7954C6.92914 11.2215 7.57197 11.4608 8.2422 11.4609C8.45587 11.461 8.66868 11.4365 8.8754 11.3878C8.92731 11.3756 8.98073 11.3693 9.03439 11.3692C9.19129 11.3692 9.34239 11.4226 9.45744 11.5186L9.90236 11.8884C10.0171 11.994 10.0816 12.1356 10.082 12.2833V12.478C10.0809 12.9208 10.2742 13.346 10.6199 13.661L14.1375 16.8803L14.141 16.8838C14.5314 17.2351 15.0609 17.4325 15.613 17.4324C16.1651 17.4324 16.6946 17.235 17.085 16.8836C17.4753 16.5322 17.6946 16.0557 17.6946 15.5588C17.6946 15.0619 17.4752 14.5854 17.0848 14.2341L11.8121 9.48868C11.7976 9.47562 11.7861 9.46011 11.7782 9.44304C11.7703 9.42597 11.7663 9.40767 11.7663 9.38919C11.7663 9.37071 11.7703 9.35241 11.7782 9.33534C11.7861 9.31827 11.7976 9.30276 11.8121 9.2897L13.2031 8.03778C13.2612 7.9855 13.3301 7.94403 13.406 7.91573C13.4819 7.88744 13.5632 7.87289 13.6453 7.8729H13.9676Z" fill="black"/>
<path d="M8.2422 12.5859C7.24155 12.5841 6.28207 12.2272 5.57189 11.5928L5.03048 11.1055C4.9719 11.0529 4.89253 11.0234 4.80978 11.0234C4.72703 11.0234 4.64766 11.0529 4.58907 11.1055L1.26876 14.0783C0.676965 14.6109 0.465637 15.3949 0.758605 16.1627C0.775039 16.206 0.794478 16.2483 0.816809 16.2893C1.21095 17.0156 1.97579 17.4375 2.81251 17.4375C3.10026 17.4381 3.38529 17.3874 3.65108 17.2882C3.91688 17.189 4.15816 17.0433 4.36095 16.8595L8.78907 12.8552C8.80771 12.8381 8.82198 12.8176 8.83089 12.795C8.83979 12.7724 8.84312 12.7483 8.84064 12.7245V12.7153C8.8389 12.6934 8.83225 12.672 8.82108 12.6525C8.80992 12.6329 8.79447 12.6156 8.77567 12.6016C8.75687 12.5876 8.73512 12.5771 8.71171 12.5709C8.6883 12.5646 8.66372 12.5627 8.63946 12.5652C8.50754 12.5784 8.37493 12.5853 8.2422 12.5859Z" fill="black"/>
</g>
<defs>
<clipPath id="clip0_1490_9724">
<rect width="20" height="18" fill="white"/>
</clipPath>
</defs>
</svg>
