<svg width="80" height="80" viewBox="0 0 80 80" fill="none" xmlns="http://www.w3.org/2000/svg">
<path d="M55.8704 34.9906C57.5129 34.9951 59.1401 34.6737 60.6576 34.0451C62.1751 33.4164 63.5528 32.4929 64.711 31.3281L76.7422 19.3047C77.6938 18.3531 77.7813 16.8047 76.8751 15.8062C76.6475 15.5554 76.3714 15.3534 76.0635 15.2125C75.7556 15.0715 75.4222 14.9947 75.0837 14.9865C74.7451 14.9783 74.4084 15.039 74.094 15.1649C73.7796 15.2907 73.4941 15.4792 73.2547 15.7187L62.5313 26.4344C62.1712 26.794 61.6832 26.996 61.1743 26.996C60.6654 26.996 60.1773 26.794 59.8172 26.4344C59.0688 25.6875 59.1094 24.425 59.8563 23.6781L70.5329 13.0015C70.7722 12.7622 70.9604 12.4768 71.0861 12.1625C71.2119 11.8483 71.2725 11.5118 71.2643 11.1734C71.2561 10.8351 71.1793 10.5019 71.0385 10.1941C70.8978 9.88629 70.696 9.61028 70.4454 9.38279C69.9929 8.97242 69.4031 8.74661 68.7922 8.74998C68.4494 8.75013 68.11 8.81782 67.7934 8.94919C67.4768 9.08056 67.1891 9.27303 66.9469 9.5156L56.2797 20.1812C55.9197 20.5408 55.4316 20.7428 54.9227 20.7428C54.4138 20.7428 53.9257 20.5408 53.5657 20.1812C52.8188 19.4344 52.8579 18.1719 53.6047 17.425L64.2813 6.75154C64.5206 6.5122 64.7088 6.22676 64.8346 5.91252C64.9603 5.59828 65.0209 5.26178 65.0127 4.92342C65.0045 4.58506 64.9277 4.25188 64.787 3.94409C64.6462 3.63629 64.4444 3.36028 64.1938 3.13279C63.7414 2.72242 63.1515 2.49661 62.5407 2.49998C61.8485 2.5008 61.1848 2.77614 60.6954 3.2656L48.6719 15.289C47.5071 16.4475 46.5836 17.8255 45.9549 19.3432C45.3262 20.861 45.0049 22.4884 45.0094 24.1312V25.4172C45.0097 25.7459 44.9451 26.0715 44.8193 26.3753C44.6936 26.6791 44.5092 26.9551 44.2766 27.1875L38.7126 32.7531C38.6545 32.8112 38.5856 32.8573 38.5097 32.8888C38.4338 32.9202 38.3525 32.9364 38.2704 32.9364C38.1882 32.9364 38.1069 32.9202 38.031 32.8888C37.9552 32.8573 37.8862 32.8112 37.8282 32.7531L10.7532 5.67654C10.2859 5.20871 9.65228 4.94507 8.99105 4.94331C8.32982 4.94155 7.69483 5.20183 7.22505 5.66716C4.85787 8.01248 3.5938 11.3234 3.5938 15.2406C3.57818 21.7094 6.97818 29.1469 12.4672 34.6281L25.8188 47.9797C27.7166 49.8733 30.2879 50.937 32.9688 50.9375C33.8235 50.9378 34.6747 50.8286 35.5016 50.6125C35.7092 50.558 35.9229 50.5302 36.1376 50.5297C36.7652 50.5298 37.3696 50.767 37.8297 51.1937L39.6094 52.8375C40.0684 53.3064 40.3263 53.936 40.3282 54.5922V55.4578C40.3236 57.4256 41.097 59.3155 42.4797 60.7156L56.5501 75.0234L56.5641 75.039C58.1258 76.6005 60.2438 77.4776 62.4522 77.4775C64.6606 77.4773 66.7784 76.5999 68.3399 75.0383C69.9014 73.4766 70.7785 71.3586 70.7784 69.1502C70.7782 66.9418 69.9008 64.8239 68.3391 63.2625L47.2485 42.1719C47.1904 42.1138 47.1443 42.0449 47.1128 41.969C47.0814 41.8931 47.0652 41.8118 47.0652 41.7297C47.0652 41.6475 47.0814 41.5662 47.1128 41.4903C47.1443 41.4145 47.1904 41.3455 47.2485 41.2875L52.8126 35.7234C53.0448 35.491 53.3205 35.3067 53.624 35.181C53.9275 35.0552 54.2528 34.9905 54.5813 34.9906H55.8704Z" fill="white"/>
<path d="M32.9688 55.9375C28.9662 55.9293 25.1283 54.3432 22.2875 51.5235L20.1219 49.3578C19.8876 49.1241 19.5701 48.9928 19.2391 48.9928C18.9081 48.9928 18.5906 49.1241 18.3563 49.3578L5.07505 62.5703C2.70786 64.9375 1.86255 68.4219 3.03442 71.8344C3.10015 72.0266 3.17791 72.2145 3.26723 72.3969C4.8438 75.625 7.90317 77.5 11.25 77.5C12.401 77.5029 13.5412 77.2773 14.6043 76.8363C15.6675 76.3954 16.6326 75.7479 17.4438 74.9313L35.1563 57.1344C35.2309 57.0583 35.2879 56.9669 35.3236 56.8665C35.3592 56.7661 35.3725 56.6592 35.3625 56.5532V56.5125C35.3556 56.4151 35.329 56.3201 35.2843 56.2332C35.2397 56.1464 35.1779 56.0694 35.1027 56.0071C35.0275 55.9447 34.9405 55.8983 34.8468 55.8705C34.7532 55.8427 34.6549 55.8341 34.5579 55.8453C34.0302 55.9039 33.4997 55.9347 32.9688 55.9375Z" fill="white"/>
</svg>
