<svg width="20" height="24" viewBox="0 0 20 24" fill="none" xmlns="http://www.w3.org/2000/svg">
<g clip-path="url(#clip0_1554_9729)">
<path d="M10 0C7.48126 0.00264713 5.06643 1.00439 3.28541 2.78541C1.50439 4.56643 0.502647 6.98126 0.5 9.5C0.5 16 7 22 9 23.65C9.26868 23.8763 9.60869 24.0005 9.96 24.0005C10.3113 24.0005 10.6513 23.8763 10.92 23.65C13 22 19.5 16 19.5 9.5C19.4974 6.98126 18.4956 4.56643 16.7146 2.78541C14.9336 1.00439 12.5187 0.00264713 10 0Z" fill="#0E376F"/>
<g clip-path="url(#clip1_1554_9729)">
<path d="M11.587 8.49907C11.7513 8.49952 11.914 8.46738 12.0658 8.40451C12.2175 8.34164 12.3553 8.2493 12.4711 8.13282L13.6742 6.93047C13.7694 6.83532 13.7781 6.68047 13.6875 6.58063C13.6648 6.55554 13.6371 6.53534 13.6064 6.52125C13.5756 6.50716 13.5422 6.49947 13.5084 6.49865C13.4745 6.49784 13.4408 6.5039 13.4094 6.51649C13.378 6.52908 13.3494 6.54792 13.3255 6.57188L12.2531 7.64344C12.2171 7.6794 12.1683 7.6996 12.1174 7.6996C12.0665 7.6996 12.0177 7.6794 11.9817 7.64344C11.9069 7.56875 11.9109 7.4425 11.9856 7.36782L13.0533 6.30016C13.0772 6.27623 13.096 6.24768 13.1086 6.21626C13.1212 6.18483 13.1272 6.15118 13.1264 6.11735C13.1256 6.08351 13.1179 6.05019 13.1039 6.01941C13.0898 5.98864 13.0696 5.96103 13.0445 5.93828C12.9993 5.89725 12.9403 5.87467 12.8792 5.875C12.8449 5.87502 12.811 5.88179 12.7793 5.89493C12.7477 5.90806 12.7189 5.92731 12.6947 5.95157L11.628 7.01813C11.592 7.05409 11.5432 7.07429 11.4923 7.07429C11.4414 7.07429 11.3926 7.05409 11.3566 7.01813C11.2819 6.94344 11.2858 6.81719 11.3605 6.7425L12.4281 5.67516C12.4521 5.65123 12.4709 5.62268 12.4835 5.59126C12.496 5.55983 12.5021 5.52618 12.5013 5.49235C12.5005 5.45851 12.4928 5.42519 12.4787 5.39441C12.4646 5.36364 12.4444 5.33603 12.4194 5.31328C12.3741 5.27225 12.3151 5.24967 12.2541 5.25C12.1848 5.25009 12.1185 5.27762 12.0695 5.32657L10.8672 6.52891C10.7507 6.64475 10.6584 6.78255 10.5955 6.93433C10.5326 7.08611 10.5005 7.24885 10.5009 7.41313V7.54172C10.501 7.5746 10.4945 7.60716 10.4819 7.63754C10.4694 7.66791 10.4509 7.69551 10.4277 7.71875L9.87126 8.27532C9.86545 8.28113 9.85856 8.28574 9.85097 8.28888C9.84338 8.29203 9.83525 8.29365 9.82704 8.29365C9.81882 8.29365 9.81069 8.29203 9.8031 8.28888C9.79552 8.28574 9.78862 8.28113 9.78282 8.27532L7.07532 5.56766C7.02859 5.52088 6.96523 5.49451 6.89911 5.49434C6.83298 5.49416 6.76948 5.52019 6.72251 5.56672C6.48579 5.80125 6.35938 6.13235 6.35938 6.52407C6.35782 7.17094 6.69782 7.91469 7.24672 8.46282L8.58188 9.79797C8.77166 9.98734 9.02879 10.0937 9.29688 10.0938C9.38235 10.0938 9.46747 10.0829 9.55016 10.0613C9.57092 10.0558 9.59229 10.053 9.61376 10.053C9.67652 10.053 9.73696 10.0767 9.78297 10.1194L9.96094 10.2838C10.0068 10.3306 10.0326 10.3936 10.0328 10.4592V10.5458C10.0324 10.7426 10.1097 10.9316 10.248 11.0716L11.655 12.5023L11.6564 12.5039C11.8126 12.6601 12.0244 12.7478 12.2452 12.7478C12.4661 12.7477 12.6778 12.66 12.834 12.5038C12.9901 12.3477 13.0778 12.1359 13.0778 11.915C13.0778 11.6942 12.9901 11.4824 12.8339 11.3263L10.7248 9.21719C10.719 9.21139 10.7144 9.20449 10.7113 9.19691C10.7081 9.18932 10.7065 9.18119 10.7065 9.17297C10.7065 9.16476 10.7081 9.15663 10.7113 9.14904C10.7144 9.14145 10.719 9.13456 10.7248 9.12875L11.2813 8.57235C11.3045 8.54911 11.3321 8.53068 11.3624 8.5181C11.3927 8.50553 11.4253 8.49906 11.4581 8.49907H11.587Z" fill="white"/>
<path d="M9.29688 10.5938C8.89662 10.5929 8.51283 10.4343 8.22875 10.1524L8.01219 9.9358C7.98876 9.91242 7.95701 9.89929 7.92391 9.89929C7.89081 9.89929 7.85906 9.91242 7.83563 9.9358L6.5075 11.257C6.27079 11.4938 6.18625 11.8422 6.30344 12.1835C6.31002 12.2027 6.31779 12.2215 6.32672 12.2397C6.48438 12.5625 6.79032 12.75 7.125 12.75C7.2401 12.7503 7.35412 12.7277 7.46043 12.6836C7.56675 12.6396 7.66326 12.5748 7.74438 12.4931L9.51563 10.7135C9.52309 10.7058 9.52879 10.6967 9.53236 10.6867C9.53592 10.6766 9.53725 10.6659 9.53625 10.6553V10.6513C9.53556 10.6415 9.5329 10.632 9.52843 10.6233C9.52397 10.6146 9.51779 10.607 9.51027 10.6007C9.50275 10.5945 9.49405 10.5898 9.48468 10.5871C9.47532 10.5843 9.46549 10.5834 9.45579 10.5845C9.40302 10.5904 9.34997 10.5935 9.29688 10.5938Z" fill="white"/>
</g>
</g>
<defs>
<clipPath id="clip0_1554_9729">
<rect width="20" height="24" fill="white"/>
</clipPath>
<clipPath id="clip1_1554_9729">
<rect width="8" height="8" fill="white" transform="translate(6 5)"/>
</clipPath>
</defs>
</svg>
