<svg width="30" height="30" viewBox="0 0 30 30" fill="none" xmlns="http://www.w3.org/2000/svg">
<path d="M2.25 6.85721C2.25 5.83422 2.7083 4.85312 3.52409 4.12975C4.33987 3.40638 5.44631 3 6.6 3H19.65C20.8037 3 21.9101 3.40638 22.7259 4.12975C23.5417 4.85312 24 5.83422 24 6.85721V29.0362C23.9999 29.2106 23.9464 29.3818 23.8453 29.5314C23.7442 29.681 23.5992 29.8035 23.4258 29.8858C23.2524 29.9682 23.057 30.0072 22.8605 29.9989C22.664 29.9906 22.4738 29.9351 22.31 29.8385L13.125 24.4095L3.93997 29.8385C3.77621 29.9351 3.58595 29.9906 3.38946 29.9989C3.19298 30.0072 2.99762 29.9682 2.8242 29.8858C2.65078 29.8035 2.50579 29.681 2.40467 29.5314C2.30356 29.3818 2.2501 29.2106 2.25 29.0362V6.85721ZM6.6 4.92861C6.02315 4.92861 5.46993 5.1318 5.06204 5.49348C4.65415 5.85517 4.425 6.34572 4.425 6.85721V27.2349L12.5225 22.4481C12.701 22.3428 12.9106 22.2866 13.125 22.2866C13.3394 22.2866 13.549 22.3428 13.7275 22.4481L21.825 27.2349V6.85721C21.825 6.34572 21.5958 5.85517 21.188 5.49348C20.7801 5.1318 20.2268 4.92861 19.65 4.92861H6.6Z" fill="black"/>
<path d="M8.25 1.87503H24.3385C24.8903 1.87503 25.4196 2.07258 25.8098 2.42422C26.2 2.77586 26.4192 3.25278 26.4192 3.75007V25.8155L26.8832 26.093C27.0399 26.1869 27.2219 26.2408 27.4099 26.2489C27.5979 26.257 27.7848 26.219 27.9507 26.139C28.1166 26.059 28.2553 25.9399 28.352 25.7944C28.4488 25.6489 28.4999 25.4825 28.5 25.313V3.75007C28.5 2.75549 28.0616 1.80164 27.2811 1.09837C26.5007 0.395095 25.4422 0 24.3385 0L11.8539 0C11.1234 1.67224e-05 10.4058 0.173301 9.77318 0.502438C9.14057 0.831574 8.61524 1.30497 8.25 1.87503Z" fill="black"/>
</svg>
