<svg width="30" height="30" viewBox="0 0 30 30" fill="none" xmlns="http://www.w3.org/2000/svg">
<g clip-path="url(#clip0_1368_2399)">
<path d="M20.0471 0.287041L29.8299 10.1732C29.9246 10.2686 29.9999 10.383 30.0514 10.5095C30.1028 10.636 30.1293 10.7721 30.1293 10.9095C30.1293 11.047 30.1028 11.1831 30.0514 11.3096C29.9999 11.4361 29.9246 11.5505 29.8299 11.6459L20.0471 21.532C19.9577 21.6241 19.8517 21.6969 19.7353 21.746C19.6189 21.7951 19.4944 21.8197 19.3688 21.8184C19.1094 21.8184 18.8606 21.7106 18.6771 21.5188C18.4936 21.327 18.3906 21.0669 18.3906 20.7957V15.6958C9.65125 16.064 5.97291 21.1775 5.81639 21.3957C5.69186 21.567 5.51997 21.6942 5.32399 21.7601C5.12802 21.8259 4.91742 21.8272 4.72071 21.7638C4.5245 21.6977 4.35327 21.5685 4.23146 21.3947C4.10965 21.2208 4.0435 21.0112 4.04244 20.7957C4.04244 9.85955 12.6383 6.50508 18.3906 6.16418V1.02339C18.391 0.822255 18.4481 0.625718 18.5549 0.458365C18.6616 0.291012 18.8131 0.160272 18.9906 0.0825005C19.1662 0.00329556 19.3605 -0.019548 19.5486 0.0168702C19.7367 0.0532883 19.9102 0.147326 20.0471 0.287041ZM20.3471 14.6594V18.3548L27.7429 10.9095L20.3471 3.43697V7.15961C20.3437 7.42975 20.2396 7.68783 20.0569 7.87887C19.8741 8.0699 19.6272 8.17878 19.3688 8.18232C18.1036 8.18232 7.82512 8.48231 6.2077 18.1094C9.95911 15.0547 14.6164 13.472 19.3688 13.6367C19.6272 13.6403 19.8741 13.7492 20.0569 13.9402C20.2396 14.1312 20.3437 14.3893 20.3471 14.6594ZM25.8555 22.1225C26.038 21.9313 26.2846 21.8222 26.5429 21.8184C26.8013 21.8219 27.0482 21.9308 27.2309 22.1218C27.4137 22.3129 27.5178 22.5709 27.5212 22.8411V23.5229C27.5212 25.2407 26.8684 26.8882 25.7065 28.1029C24.5445 29.3176 22.9686 30 21.3254 30H6.32509C4.68187 30 3.10595 29.3176 1.94401 28.1029C0.782079 26.8882 0.129311 25.2407 0.129311 23.5229V7.84141C0.129311 6.12357 0.782079 4.47609 1.94401 3.2614C3.10595 2.0467 4.68187 1.36429 6.32509 1.36429H12.1948C12.4542 1.36429 12.7031 1.47204 12.8865 1.66383C13.07 1.85563 13.1731 2.11576 13.1731 2.38699C13.1731 2.65823 13.07 2.91836 12.8865 3.11015C12.7031 3.30195 12.4542 3.4097 12.1948 3.4097H6.32509C5.20184 3.41329 4.12558 3.88136 3.33131 4.71169C2.53705 5.54202 2.08931 6.66716 2.08587 7.84141V23.5229C2.08931 24.6971 2.53705 25.8223 3.33131 26.6526C4.12558 27.4829 5.20184 27.951 6.32509 27.9546H21.3254C22.4487 27.951 23.5249 27.4829 24.3192 26.6526C25.1134 25.8223 25.5612 24.6971 25.5646 23.5229V22.8411C25.5683 22.5711 25.6727 22.3132 25.8555 22.1225Z" fill="black"/>
</g>
<defs>
<clipPath id="clip0_1368_2399">
<rect width="30" height="30" fill="white"/>
</clipPath>
</defs>
</svg>
